<?xml version="1.0" encoding="UTF-8"?>
<svg version="1.1" xmlns="http://www.w3.org/2000/svg" width="500" height="500">
<path d="M0 0 C1.05806854 -0.00262848 1.05806854 -0.00262848 2.13751221 -0.00531006 C4.44725073 -0.0096752 6.75691121 -0.00680663 9.06665039 -0.00341797 C10.69600946 -0.00409321 12.32536844 -0.00506507 13.95472717 -0.00631714 C17.36647503 -0.00778749 20.77819662 -0.00566342 24.18994141 -0.00097656 C28.51288707 0.00467936 32.83577005 0.00146393 37.15871334 -0.00454903 C40.52639719 -0.00820777 43.89406684 -0.00699133 47.26175117 -0.00442123 C48.85257538 -0.00376441 50.44340097 -0.00453563 52.03422356 -0.00690079 C60.284262 -0.01646549 68.50607368 0.10641444 76.74462891 0.56738281 C77.44085074 0.60505705 78.13707258 0.64273129 78.85439205 0.68154716 C90.35188599 1.3967629 97.51830141 5.10418962 105.57055664 13.24658203 C112.66927708 21.35550499 118.15753209 32.37480202 119.47680664 43.12939453 C122.11680664 42.79939453 124.75680664 42.46939453 127.47680664 42.12939453 C127.47680664 38.82939453 127.47680664 35.52939453 127.47680664 32.12939453 C148.80672387 29.18733698 148.80672387 29.18733698 154.47680664 33.12939453 C155.41430664 35.56689453 155.41430664 35.56689453 155.47680664 38.12939453 C153.06999827 41.3413274 149.68094726 42.62453416 146.10180664 44.25439453 C144.98032227 44.77259766 143.85883789 45.29080078 142.70336914 45.82470703 C139.9129589 46.95303272 137.4389025 47.67454086 134.47680664 48.12939453 C134.68305664 48.87189453 134.88930664 49.61439453 135.10180664 50.37939453 C135.47680664 53.12939453 135.47680664 53.12939453 134.47680664 55.00439453 C132.92236774 58.30757719 133.60929463 60.65934648 134.47680664 64.12939453 C136.759857 67.50830906 138.75649315 68.29922759 142.60180664 69.06689453 C146.30065972 69.876662 146.30065972 69.876662 147.91430664 72.19189453 C148.67304601 76.15420011 149.1440583 80.11014482 149.47680664 84.12939453 C147.99180664 84.62439453 147.99180664 84.62439453 146.47680664 85.12939453 C146.47680664 85.78939453 146.47680664 86.44939453 146.47680664 87.12939453 C145.81680664 87.12939453 145.15680664 87.12939453 144.47680664 87.12939453 C143.00202184 91.73809704 142.9835603 96.27972075 144.22680664 100.94189453 C145.6928146 103.50740846 146.84448433 103.94698959 149.47680664 105.12939453 C149.19253247 106.71407181 148.89905846 108.29710023 148.60180664 109.87939453 C148.35817383 111.20197266 148.35817383 111.20197266 148.10961914 112.55126953 C147.48720296 115.08703917 146.95538001 116.97613234 145.47680664 119.12939453 C143.41821289 119.96533203 143.41821289 119.96533203 141.03930664 120.50439453 C137.70941766 121.52320115 136.67645601 121.89451292 134.35180664 124.62939453 C133.45381765 128.22135051 133.69083287 129.93333619 134.28930664 133.50439453 C134.75029246 137.0467066 134.81953628 138.56314556 132.94946289 141.65283203 C130.85865284 143.87212762 129.14534546 145.64381622 126.47680664 147.12939453 C123.95336914 146.85595703 123.95336914 146.85595703 121.47680664 146.12939453 C116.98606914 145.53403161 114.37726605 145.48341278 110.60180664 148.19189453 C108.2289736 151.03395714 108.2289736 151.03395714 107.78930664 154.75439453 C106.47680664 158.12939453 106.47680664 158.12939453 104.31274414 159.27783203 C99.7212209 160.75416251 96.18505402 161.59330338 91.47680664 160.12939453 C90.69305664 159.28376953 89.90930664 158.43814453 89.10180664 157.56689453 C86.63102045 154.7951143 86.63102045 154.7951143 82.91430664 154.69189453 C79.78428381 155.09026107 78.00775937 155.32157116 75.47680664 157.12939453 C75.04754883 157.81775391 74.61829102 158.50611328 74.17602539 159.21533203 C72.47680664 161.12939453 72.47680664 161.12939453 70.13696289 161.37158203 C69.27973633 161.25041016 68.42250977 161.12923828 67.53930664 161.00439453 C66.6846582 160.89869141 65.83000977 160.79298828 64.94946289 160.68408203 C62.42138604 160.11696211 60.61385941 159.59949896 58.47680664 158.12939453 C57.57055664 156.07080078 57.57055664 156.07080078 56.97680664 153.69189453 C56.1425812 150.94645418 55.62074862 149.30532362 53.78930664 147.06689453 C49.5248782 145.33807219 45.13911468 145.57529185 40.85180664 147.00439453 C38.47680664 147.12939453 38.47680664 147.12939453 36.84008789 145.93017578 C35.24454835 144.39414355 33.79082061 142.91302174 32.47680664 141.12939453 C32.47680664 140.46939453 32.47680664 139.80939453 32.47680664 139.12939453 C31.81680664 139.12939453 31.15680664 139.12939453 30.47680664 139.12939453 C31.35180664 132.37939453 31.35180664 132.37939453 32.47680664 130.12939453 C27.92256665 130.12403119 23.37086013 130.15804048 18.81713867 130.22705078 C17.27132761 130.24511158 15.72535644 130.2527974 14.17944336 130.24951172 C2.70807733 130.08595052 2.70807733 130.08595052 -6.89819336 135.79785156 C-9.59850066 138.01051322 -12.16396392 137.71434637 -15.52319336 137.50439453 C-16.65756836 137.45025391 -17.79194336 137.39611328 -18.96069336 137.34033203 C-19.80631836 137.27072266 -20.65194336 137.20111328 -21.52319336 137.12939453 C-21.49999023 137.73267578 -21.47678711 138.33595703 -21.45288086 138.95751953 C-21.43483398 139.75673828 -21.41678711 140.55595703 -21.39819336 141.37939453 C-21.37499023 142.16830078 -21.35178711 142.95720703 -21.32788086 143.77001953 C-21.54845475 146.43455213 -22.02169772 147.91964623 -23.52319336 150.12939453 C-26.43238397 151.90483991 -28.64416672 152.38664711 -32.02880859 152.41992188 C-32.91330185 152.43268158 -33.7977951 152.44544128 -34.70909119 152.45858765 C-35.65708084 152.46081329 -36.6050705 152.46303894 -37.58178711 152.46533203 C-39.0537429 152.47531723 -39.0537429 152.47531723 -40.55543518 152.48550415 C-42.62906013 152.49562095 -44.70271758 152.50032147 -46.77636719 152.5 C-49.94577716 152.50437395 -53.11379525 152.54070639 -56.28295898 152.57861328 C-58.29923027 152.58448149 -60.31550816 152.58845086 -62.33178711 152.59033203 C-63.27775253 152.60470306 -64.22371796 152.6190741 -65.198349 152.63388062 C-69.43373917 152.60452041 -71.91679549 152.47325124 -75.66015625 150.35058594 C-77.52319336 148.12939453 -77.52319336 148.12939453 -77.52319336 144.12939453 C-78.43198242 143.98244141 -78.43198242 143.98244141 -79.35913086 143.83251953 C-90.85457248 141.78102533 -102.87093885 137.57904568 -110.39038086 128.14892578 C-113.21216124 123.11837249 -112.96524913 117.96076843 -111.64819336 112.50439453 C-105.71202853 103.07636803 -96.80571138 98.61315503 -86.52319336 95.12939453 C-84.53223523 94.74573213 -82.53333931 94.3947704 -80.52319336 94.12939453 C-81.52319336 97.12939453 -81.52319336 97.12939453 -84.98022461 99.10205078 C-86.4271134 99.80885662 -87.8792142 100.5050684 -89.33569336 101.19189453 C-90.42333984 101.71879883 -90.42333984 101.71879883 -91.53295898 102.25634766 C-92.89182596 102.91402435 -94.25270768 103.56756617 -95.61621094 104.21557617 C-97.59674934 105.16464226 -99.56134848 106.14234558 -101.52319336 107.12939453 C-101.52319336 107.78939453 -101.52319336 108.44939453 -101.52319336 109.12939453 C-102.18319336 109.12939453 -102.84319336 109.12939453 -103.52319336 109.12939453 C-104.8814242 112.90225797 -105.63843318 115.45076005 -104.96069336 119.44189453 C-103.1450463 122.83636513 -102.15338692 123.02455301 -98.52319336 124.12939453 C-97.24458265 124.78102055 -95.97432174 125.44917022 -94.71069336 126.12939453 C-85.68472396 130.61735344 -76.3980067 130.67400265 -66.52319336 131.12939453 C-67.14967773 131.06880859 -67.77616211 131.00822266 -68.42163086 130.94580078 C-69.23889648 130.86201172 -70.05616211 130.77822266 -70.89819336 130.69189453 C-72.11635742 130.57007813 -72.11635742 130.57007813 -73.35913086 130.44580078 C-75.52319336 130.12939453 -75.52319336 130.12939453 -77.52319336 129.12939453 C-77.59992704 122.24673696 -77.65207703 115.36419169 -77.68798828 108.48120117 C-77.70297596 106.14489622 -77.72337303 103.80861892 -77.74951172 101.47241211 C-78.12023842 67.46005411 -78.12023842 67.46005411 -69.52319336 58.12939453 C-66.78720984 56.0552472 -64.06687544 54.12939453 -60.52319336 54.12939453 C-60.52319336 52.47939453 -60.52319336 50.82939453 -60.52319336 49.12939453 C-61.37526367 48.86126953 -62.22733398 48.59314453 -63.10522461 48.31689453 C-66.58793555 47.10690124 -69.86782659 45.68241045 -73.21069336 44.12939453 C-74.32831055 43.61376953 -75.44592773 43.09814453 -76.59741211 42.56689453 C-79.52319336 41.12939453 -79.52319336 41.12939453 -82.52319336 39.12939453 C-82.21069336 36.25439453 -82.21069336 36.25439453 -81.52319336 33.12939453 C-77.79555459 30.64430202 -75.83960286 30.89254554 -71.39819336 30.94189453 C-70.73037842 30.94833984 -70.06256348 30.95478516 -69.37451172 30.96142578 C-64.36238108 31.03899231 -59.48317934 31.43325615 -54.52319336 32.12939453 C-54.52319336 37.40939453 -54.52319336 42.68939453 -54.52319336 48.12939453 C-53.86319336 48.12939453 -53.20319336 48.12939453 -52.52319336 48.12939453 C-52.08749023 46.88544922 -51.65178711 45.64150391 -51.20288086 44.35986328 C-39.7193085 12.04403783 -39.7193085 12.04403783 -24.52319336 4.12939453 C-16.50867303 0.82753222 -8.61971354 0.00542836 0 0 Z M-16.52319336 12.12939453 C-16.52319336 12.78939453 -16.52319336 13.44939453 -16.52319336 14.12939453 C-17.51319336 14.45939453 -18.50319336 14.78939453 -19.52319336 15.12939453 C-19.52319336 15.78939453 -19.52319336 16.44939453 -19.52319336 17.12939453 C-20.18319336 17.12939453 -20.84319336 17.12939453 -21.52319336 17.12939453 C-28.98704713 27.16699098 -33.58796051 39.56514213 -32.52319336 52.12939453 C-30.33412938 54.31845851 -25.29117173 53.53559155 -22.23803711 53.66455078 C-21.30721817 53.70752792 -20.37639923 53.75050507 -19.41737366 53.79478455 C-16.43199601 53.93159643 -13.44637107 54.06181165 -10.46069336 54.19189453 C-8.44179351 54.28325844 -6.42291295 54.37504964 -4.40405273 54.46728516 C0.55602315 54.69295471 5.51633058 54.91270686 10.47680664 55.12939453 C10.14680664 57.43939453 9.81680664 59.74939453 9.47680664 62.12939453 C8.45586914 62.37689453 8.45586914 62.37689453 7.41430664 62.62939453 C1.5724183 65.61248645 -2.47743502 70.95119343 -4.52319336 77.12939453 C-4.79655285 80.22300716 -4.79655285 80.22300716 -4.71850586 83.52392578 C-4.71206055 84.72597656 -4.70561523 85.92802734 -4.69897461 87.16650391 C-4.6822168 88.41238281 -4.66545898 89.65826172 -4.64819336 90.94189453 C-4.63916992 92.20710938 -4.63014648 93.47232422 -4.62084961 94.77587891 C-4.5973173 97.89391017 -4.56443881 101.0115555 -4.52319336 104.12939453 C-0.89821002 104.15833385 2.72674377 104.17617245 6.35180664 104.19189453 C7.3843457 104.20027344 8.41688477 104.20865234 9.48071289 104.21728516 C10.4668457 104.22050781 11.45297852 104.22373047 12.46899414 104.22705078 C13.83580322 104.23490601 13.83580322 104.23490601 15.23022461 104.24291992 C17.51368173 104.27825018 17.51368173 104.27825018 19.47680664 103.12939453 C19.47680664 102.46939453 19.47680664 101.80939453 19.47680664 101.12939453 C20.13680664 101.12939453 20.79680664 101.12939453 21.47680664 101.12939453 C23.00383192 96.54831869 23.16980993 92.7233021 21.22680664 88.25439453 C19.48506637 85.71021315 19.48506637 85.71021315 15.47680664 85.12939453 C16.96180664 77.70439453 16.96180664 77.70439453 18.47680664 70.12939453 C20.30211914 70.03658203 20.30211914 70.03658203 22.16430664 69.94189453 C25.4994106 69.51022327 26.55897562 69.06995314 29.41430664 67.00439453 C31.91276275 63.52169813 32.40189562 61.39932267 32.47680664 57.12939453 C31.61909323 53.88702885 31.61909323 53.88702885 30.47680664 51.12939453 C30.47680664 50.46939453 30.47680664 49.80939453 30.47680664 49.12939453 C31.13680664 49.12939453 31.79680664 49.12939453 32.47680664 49.12939453 C33.07493164 48.11876953 33.67305664 47.10814453 34.28930664 46.06689453 C35.59399414 44.38330078 35.59399414 44.38330078 37.47680664 43.12939453 C40.84004085 43.090084 44.03091916 43.51864131 47.36743164 43.92626953 C50.64472527 44.35359849 50.64472527 44.35359849 54.16430664 42.75439453 C56.64492282 39.93855995 56.79219981 39.11022578 57.28930664 35.56689453 C57.66430664 33.18798828 57.66430664 33.18798828 58.47680664 31.12939453 C61.31360311 29.35067739 64.2094862 28.73215882 67.47680664 28.12939453 C68.48743164 27.90251953 69.49805664 27.67564453 70.53930664 27.44189453 C71.17868164 27.33876953 71.81805664 27.23564453 72.47680664 27.12939453 C72.66243164 27.89251953 72.84805664 28.65564453 73.03930664 29.44189453 C74.32967446 32.41533026 74.32967446 32.41533026 77.66430664 34.00439453 C81.78874979 35.22144333 84.32111693 35.06230447 88.47680664 34.12939453 C88.47680664 33.46939453 88.47680664 32.80939453 88.47680664 32.12939453 C89.13680664 32.12939453 89.79680664 32.12939453 90.47680664 32.12939453 C91.46680664 29.65439453 91.46680664 29.65439453 92.47680664 27.12939453 C93.23606445 27.35755859 93.99532227 27.58572266 94.77758789 27.82080078 C96.26838867 28.25199219 96.26838867 28.25199219 97.78930664 28.69189453 C98.77543945 28.98193359 99.76157227 29.27197266 100.77758789 29.57080078 C103.55709003 30.38147744 103.55709003 30.38147744 106.47680664 29.12939453 C105.3604925 27.29075948 104.23351037 25.4585973 103.10180664 23.62939453 C102.47532227 22.60845703 101.84883789 21.58751953 101.20336914 20.53564453 C100.3487207 19.34455078 100.3487207 19.34455078 99.47680664 18.12939453 C98.81680664 18.12939453 98.15680664 18.12939453 97.47680664 18.12939453 C97.47680664 17.46939453 97.47680664 16.80939453 97.47680664 16.12939453 C96.81680664 16.12939453 96.15680664 16.12939453 95.47680664 16.12939453 C95.47680664 15.46939453 95.47680664 14.80939453 95.47680664 14.12939453 C94.48680664 14.12939453 93.49680664 14.12939453 92.47680664 14.12939453 C92.47680664 13.46939453 92.47680664 12.80939453 92.47680664 12.12939453 C86.15800702 9.6426012 80.68834009 8.69212549 73.92138672 8.74121094 C73.0128746 8.73595398 72.10436249 8.73069702 71.1683197 8.72528076 C68.19414592 8.71218006 65.22051619 8.72078124 62.24633789 8.73095703 C60.16607054 8.72893397 58.08580388 8.7260206 56.00553894 8.72225952 C51.65905971 8.71785008 47.31276615 8.72422472 42.96630859 8.73828125 C37.40122934 8.75540426 31.83658319 8.74550336 26.27151966 8.72756386 C21.98122399 8.71671606 17.69103082 8.72017641 13.40073204 8.72794724 C11.34865963 8.72994482 9.29657783 8.72750552 7.24451637 8.72050858 C4.37744136 8.71287425 1.51106598 8.72452482 -1.35595703 8.74121094 C-2.19921539 8.73513824 -3.04247375 8.72906555 -3.9112854 8.72280884 C-8.86823705 8.77614729 -12.17454875 9.48525107 -16.52319336 12.12939453 Z M106.47680664 33.12939453 C107.07542406 35.48110584 107.74605016 37.81533233 108.47680664 40.12939453 C109.13680664 40.45939453 109.79680664 40.78939453 110.47680664 41.12939453 C109.95412198 38.36663276 109.36811078 35.80330694 108.47680664 33.12939453 C107.81680664 33.12939453 107.15680664 33.12939453 106.47680664 33.12939453 Z M53.47680664 53.12939453 C53.47680664 53.78939453 53.47680664 54.44939453 53.47680664 55.12939453 C51.82680664 55.78939453 50.17680664 56.44939453 48.47680664 57.12939453 C48.47680664 57.78939453 48.47680664 58.44939453 48.47680664 59.12939453 C47.81680664 59.12939453 47.15680664 59.12939453 46.47680664 59.12939453 C43.45162755 62.18497876 43.45162755 62.18497876 42.47680664 66.12939453 C41.81680664 66.12939453 41.15680664 66.12939453 40.47680664 66.12939453 C39.49330639 68.21068557 38.51516206 70.29450812 37.53930664 72.37939453 C36.72139648 74.11962891 36.72139648 74.11962891 35.88696289 75.89501953 C31.22250722 86.59354944 31.64026429 101.81133918 35.72680664 112.62939453 C36.58946947 114.48874972 37.49920583 116.3278159 38.47680664 118.12939453 C38.84547852 118.82677734 39.21415039 119.52416016 39.59399414 120.24267578 C40.63247717 122.10490171 40.63247717 122.10490171 42.47680664 124.12939453 C43.46680664 124.12939453 44.45680664 124.12939453 45.47680664 124.12939453 C45.47680664 123.46939453 45.47680664 122.80939453 45.47680664 122.12939453 C46.13680664 122.12939453 46.79680664 122.12939453 47.47680664 122.12939453 C49.15193034 120.24663733 49.15193034 120.24663733 50.85180664 117.87939453 C52.70313867 115.38376633 54.47604541 113.13013706 56.70336914 110.95751953 C58.70890315 109.314638 58.70890315 109.314638 58.47680664 107.12939453 C59.13680664 107.12939453 59.79680664 107.12939453 60.47680664 107.12939453 C60.47680664 106.46939453 60.47680664 105.80939453 60.47680664 105.12939453 C61.13680664 105.12939453 61.79680664 105.12939453 62.47680664 105.12939453 C66.11314203 101.64940946 66.11314203 101.64940946 67.47680664 97.12939453 C68.13680664 97.12939453 68.79680664 97.12939453 69.47680664 97.12939453 C71.32685601 95.49200152 71.32685601 95.49200152 73.16430664 93.37939453 C73.80754883 92.68330078 74.45079102 91.98720703 75.11352539 91.27001953 C76.73557865 89.22773107 76.73557865 89.22773107 76.18383789 86.86376953 C75.83385742 86.00525391 75.83385742 86.00525391 75.47680664 85.12939453 C74.81680664 85.12939453 74.15680664 85.12939453 73.47680664 85.12939453 C73.47680664 84.46939453 73.47680664 83.80939453 73.47680664 83.12939453 C72.81680664 83.12939453 72.15680664 83.12939453 71.47680664 83.12939453 C71.47680664 82.46939453 71.47680664 81.80939453 71.47680664 81.12939453 C70.81680664 81.12939453 70.15680664 81.12939453 69.47680664 81.12939453 C69.14680664 80.13939453 68.81680664 79.14939453 68.47680664 78.12939453 C66.82476208 77.42727559 65.15756895 76.7596804 63.47680664 76.12939453 C63.14680664 75.46939453 62.81680664 74.80939453 62.47680664 74.12939453 C61.81680664 74.12939453 61.15680664 74.12939453 60.47680664 74.12939453 C60.14680664 72.14939453 59.81680664 70.16939453 59.47680664 68.12939453 C60.46680664 67.46939453 61.45680664 66.80939453 62.47680664 66.12939453 C62.47680664 65.46939453 62.47680664 64.80939453 62.47680664 64.12939453 C68.0282385 67.28020721 70.15054374 69.24724508 72.51586914 75.21142578 C74.23554948 78.6437959 76.86497932 81.3485169 79.47680664 84.12939453 C82.06136316 82.53466817 83.66747598 81.50605768 85.47680664 79.12939453 C85.98638626 76.55630155 85.98638626 76.55630155 86.03930664 73.75439453 C86.24671765 69.09078934 86.83394093 66.15026474 89.80102539 62.50048828 C92.98656803 59.89413521 96.52904022 59.13106661 100.47680664 58.12939453 C98.49680664 62.41939453 96.51680664 66.70939453 94.47680664 71.12939453 C95.79680664 72.77939453 97.11680664 74.42939453 98.47680664 76.12939453 C101.64528691 76.54748654 101.64528691 76.54748654 104.47680664 76.12939453 C105.31529468 74.67401886 106.14744598 73.2149908 106.97680664 71.75439453 C107.67290039 70.53623047 107.67290039 70.53623047 108.38305664 69.29345703 C109.62716523 67.23602579 109.62716523 67.23602579 109.47680664 65.12939453 C110.96180664 65.62439453 110.96180664 65.62439453 112.47680664 66.12939453 C114.19406458 71.28116835 114.3390435 76.06133444 111.91430664 80.94189453 C109.51390815 84.65699891 106.7143673 85.88735089 102.47680664 87.12939453 C99.03930664 87.31689453 99.03930664 87.31689453 96.47680664 87.12939453 C96.47680664 87.78939453 96.47680664 88.44939453 96.47680664 89.12939453 C95.81680664 89.12939453 95.15680664 89.12939453 94.47680664 89.12939453 C93.09448221 90.75565857 91.75743149 92.42189473 90.47680664 94.12939453 C91.62854019 96.597395 92.5246423 98.17723019 94.47680664 100.12939453 C96.48568884 100.16128155 98.4968692 100.18834511 100.50415039 100.10205078 C102.47680664 100.12939453 102.47680664 100.12939453 105.47680664 101.12939453 C105.47680664 101.78939453 105.47680664 102.44939453 105.47680664 103.12939453 C106.13680664 103.12939453 106.79680664 103.12939453 107.47680664 103.12939453 C107.72430664 103.68626953 107.97180664 104.24314453 108.22680664 104.81689453 C109.70605482 107.55350366 111.41148103 109.80590322 113.47680664 112.12939453 C114.13680664 112.12939453 114.79680664 112.12939453 115.47680664 112.12939453 C115.87899414 112.99564453 115.87899414 112.99564453 116.28930664 113.87939453 C117.50609853 116.18489496 118.78014543 118.14995646 120.47680664 120.12939453 C121.13680664 120.12939453 121.79680664 120.12939453 122.47680664 120.12939453 C122.80680664 120.78939453 123.13680664 121.44939453 123.47680664 122.12939453 C131.33863642 111.74054804 133.36193272 99.47856104 132.27368164 86.75439453 C130.73243367 76.56875579 125.44592821 66.63285332 118.47680664 59.12939453 C117.81680664 59.12939453 117.15680664 59.12939453 116.47680664 59.12939453 C116.47680664 58.46939453 116.47680664 57.80939453 116.47680664 57.12939453 C115.81680664 57.12939453 115.15680664 57.12939453 114.47680664 57.12939453 C114.47680664 56.46939453 114.47680664 55.80939453 114.47680664 55.12939453 C96.36923903 42.41426669 72.21817529 39.38572419 53.47680664 53.12939453 Z M-63.52319336 68.12939453 C-65.23673797 73.11425157 -63.62473071 76.57759311 -61.52319336 81.12939453 C-60.10009496 84.03569821 -60.10009496 84.03569821 -58.52319336 86.12939453 C-57.86319336 86.12939453 -57.20319336 86.12939453 -56.52319336 86.12939453 C-56.27569336 86.89251953 -56.02819336 87.65564453 -55.77319336 88.44189453 C-54.31609938 91.57464658 -53.59167785 92.55581274 -50.52319336 94.12939453 C-42.99784212 95.26515083 -35.55864106 95.24655603 -27.96069336 95.19189453 C-26.16148437 95.18512695 -26.16148437 95.18512695 -24.32592773 95.17822266 C-21.39162977 95.16653223 -18.45743887 95.15014591 -15.52319336 95.12939453 C-14.31088257 90.84366688 -14.98606859 88.94039079 -17.13647461 85.08251953 C-21.92614675 78.33650243 -30.00945609 76.97485533 -37.5871582 75.01464844 C-43.54335365 73.46699493 -49.06608545 71.48066447 -54.72631836 69.04736328 C-57.80582955 68.03662986 -60.30297261 67.96266713 -63.52319336 68.12939453 Z M82.66040039 101.77392578 C81.79608398 102.84707031 81.79608398 102.84707031 80.91430664 103.94189453 C77.53491935 108.07392933 77.53491935 108.07392933 75.76196289 109.76611328 C74.24815671 111.05968703 74.24815671 111.05968703 74.47680664 113.12939453 C73.81680664 113.12939453 73.15680664 113.12939453 72.47680664 113.12939453 C71.81680664 114.77939453 71.15680664 116.42939453 70.47680664 118.12939453 C69.81680664 118.12939453 69.15680664 118.12939453 68.47680664 118.12939453 C68.47680664 118.78939453 68.47680664 119.44939453 68.47680664 120.12939453 C67.81680664 120.12939453 67.15680664 120.12939453 66.47680664 120.12939453 C64.6661329 121.84271442 64.6661329 121.84271442 62.85180664 124.00439453 C62.22016602 124.72369141 61.58852539 125.44298828 60.93774414 126.18408203 C59.27663541 127.99046386 59.27663541 127.99046386 59.47680664 130.12939453 C58.81680664 130.12939453 58.15680664 130.12939453 57.47680664 130.12939453 C55.07860359 132.766242 55.07860359 132.766242 54.47680664 136.12939453 C68.51178916 143.12488739 81.24351401 146.76371974 96.68383789 142.12939453 C101.42260219 140.43271808 105.95867777 138.34039377 110.47680664 136.12939453 C109.69399359 134.79084397 108.90028788 133.45865809 108.10180664 132.12939453 C107.66094727 131.38689453 107.22008789 130.64439453 106.76586914 129.87939453 C106.1277832 129.01314453 106.1277832 129.01314453 105.47680664 128.12939453 C104.81680664 128.12939453 104.15680664 128.12939453 103.47680664 128.12939453 C103.47680664 127.46939453 103.47680664 126.80939453 103.47680664 126.12939453 C102.81680664 126.12939453 102.15680664 126.12939453 101.47680664 126.12939453 C101.2305957 125.56349609 100.98438477 124.99759766 100.73071289 124.41455078 C98.78903611 120.87598095 95.99380115 118.18830546 93.25415039 115.25048828 C91.47680664 113.12939453 91.47680664 113.12939453 90.47680664 110.12939453 C90.80351567 108.12830175 91.13657878 106.12823322 91.47680664 104.12939453 C90.98180664 103.13939453 90.98180664 103.13939453 90.47680664 102.12939453 C89.81680664 102.12939453 89.15680664 102.12939453 88.47680664 102.12939453 C88.47680664 101.46939453 88.47680664 100.80939453 88.47680664 100.12939453 C84.56263468 99.68195203 84.56263468 99.68195203 82.66040039 101.77392578 Z M-58.52319336 132.12939453 C-54.52319336 133.12939453 -54.52319336 133.12939453 -54.52319336 133.12939453 Z " fill="#2B6AB4" transform="translate(228.523193359375,168.87060546875)"/>
<path d="M0 0 C5.90158761 -0.73769845 10.41125334 2.1374857 15.046875 5.47265625 C25.59683652 14.12117122 33.23151397 27.42789792 35 41 C37.64 40.67 40.28 40.34 43 40 C43 36.7 43 33.4 43 30 C64.32991723 27.05794245 64.32991723 27.05794245 70 31 C70.9375 33.4375 70.9375 33.4375 71 36 C68.9152658 39.188417 65.42715658 40.56059424 62 42 C59.125 42.1875 59.125 42.1875 57 42 C58.125 40.0625 58.125 40.0625 60 38 C63.1875 37.25 63.1875 37.25 66 37 C66.33 35.35 66.66 33.7 67 32 C59.41 31.67 51.82 31.34 44 31 C44 34.63 44 38.26 44 42 C40.27034861 44.03435531 38.33094958 45 34 45 C33.67 44.01 33.34 43.02 33 42 C31.515 41.01 31.515 41.01 30 40 C30.66 39.67 31.32 39.34 32 39 C32 38.01 32 37.02 32 36 C30.35 36 28.7 36 27 36 C27.99 38.97 28.98 41.94 30 45 C27 46 27 46 24 45 C23.34 46.32 22.68 47.64 22 49 C21.13117188 48.65066406 20.26234375 48.30132812 19.3671875 47.94140625 C18.21476562 47.48636719 17.06234375 47.03132813 15.875 46.5625 C14.73804688 46.11003906 13.60109375 45.65757812 12.4296875 45.19140625 C-0.88767895 40.56521403 -13.45805254 43.60380076 -26 49 C-27.6650558 49.67067982 -29.33130425 50.33842859 -31 51 C-31 51.66 -31 52.32 -31 53 C-32.65 53.66 -34.3 54.32 -36 55 C-36 55.66 -36 56.32 -36 57 C-36.66 57 -37.32 57 -38 57 C-38.28875 57.598125 -38.5775 58.19625 -38.875 58.8125 C-40 61 -40 61 -42 64 C-42.66 64 -43.32 64 -44 64 C-44.12375 64.5671875 -44.2475 65.134375 -44.375 65.71875 C-45.25012219 68.912946 -46.66726179 71.7855915 -48.0625 74.78125 C-49.57709298 78.36578672 -50.1330665 81.67054884 -50.31640625 85.546875 C-50.35830078 86.39121094 -50.40019531 87.23554688 -50.44335938 88.10546875 C-50.48267578 88.97816406 -50.52199219 89.85085938 -50.5625 90.75 C-50.60568359 91.63816406 -50.64886719 92.52632813 -50.69335938 93.44140625 C-50.79913615 95.62745963 -50.90122546 97.81362089 -51 100 C-51.33 100 -51.66 100 -52 100 C-52.33 94.39 -52.66 88.78 -53 83 C-53.66 82.67 -54.32 82.34 -55 82 C-55.66 81.34 -56.32 80.68 -57 80 C-57.495 80.99 -57.495 80.99 -58 82 C-58.33 82 -58.66 82 -59 82 C-58.67 83.98 -58.34 85.96 -58 88 C-59.485 88.495 -59.485 88.495 -61 89 C-61 91.31 -61 93.62 -61 96 C-61.33 96 -61.66 96 -62 96 C-62.10957031 95.38511719 -62.21914062 94.77023437 -62.33203125 94.13671875 C-62.56986328 92.92435547 -62.56986328 92.92435547 -62.8125 91.6875 C-62.96332031 90.88699219 -63.11414063 90.08648437 -63.26953125 89.26171875 C-64.08740771 86.72936328 -64.96014607 85.66990561 -67 84 C-67.66 83.67 -68.32 83.34 -69 83 C-68.7455873 79.98721802 -68.39669355 76.99724013 -68 74 C-67.7834375 72.329375 -67.7834375 72.329375 -67.5625 70.625 C-65.61811126 67.35842691 -64.64136216 67.37903205 -61.0625 66.4375 C-60.17046875 66.21449219 -59.2784375 65.99148437 -58.359375 65.76171875 C-55.79032271 65.13558492 -55.79032271 65.13558492 -53.8125 62.75 C-52.54847124 58.47174882 -53.48330741 54.91176259 -54.625 50.6875 C-55 49 -55 49 -54 47 C-53.34 47 -52.68 47 -52 47 C-51.5978125 46.1028125 -51.5978125 46.1028125 -51.1875 45.1875 C-49.92439833 42.86073377 -49.13945143 41.56221186 -47 40 C-43.67718206 40.03506932 -40.51635954 40.51498489 -37.2265625 40.96875 C-33.45332672 41.00529466 -31.86333002 40.43251706 -29 38 C-28.34266579 35.87161106 -28.34266579 35.87161106 -28.3125 33.5625 C-27.9140625 31.1640625 -27.9140625 31.1640625 -27 29 C-22.37144087 25.84188565 -17.54494588 24.77103455 -12 25 C-11.855625 25.78375 -11.71125 26.5675 -11.5625 27.375 C-10.29348708 30.114472 -10.29348708 30.114472 -8.0390625 30.77734375 C-4.02379287 31.69111774 -0.12976041 32.26643616 4 32 C4 31.34 4 30.68 4 30 C4.66 30 5.32 30 6 30 C6.99 27.525 6.99 27.525 8 25 C12.38507941 25.52026366 16.67498095 26.09863876 21 27 C20.566875 26.37351563 20.13375 25.74703125 19.6875 25.1015625 C19.130625 24.28429687 18.57375 23.46703125 18 22.625 C17.443125 21.81289062 16.88625 21.00078125 16.3125 20.1640625 C15 18 15 18 15 16 C14.34 16 13.68 16 13 16 C13 15.34 13 14.68 13 14 C12.34 14 11.68 14 11 14 C11 13.34 11 12.68 11 12 C10.01 12 9.02 12 8 12 C8 11.34 8 10.68 8 10 C3.545 9.01 3.545 9.01 -1 8 C0.32 7.67 1.64 7.34 3 7 C3 6.34 3 5.68 3 5 C4.98 5 6.96 5 9 5 C9 4.34 9 3.68 9 3 C7.68 3.33 6.36 3.66 5 4 C4.505 2.515 4.505 2.515 4 1 C1.98491642 0.26676204 1.98491642 0.26676204 0 0 Z M22 31 C22.59861742 33.35171131 23.26924352 35.6859378 24 38 C24.66 38.33 25.32 38.66 26 39 C25.47731534 36.23723823 24.89130413 33.6739124 24 31 C23.34 31 22.68 31 22 31 Z " fill="#2E6AB3" transform="translate(313,171)"/>
<path d="M0 0 C0 0.66 0 1.32 0 2 C1.32 2 2.64 2 4 2 C4.495 2.99 4.495 2.99 5 4 C6.32 4 7.64 4 9 4 C9 4.66 9 5.32 9 6 C6 7 6 7 3 6 C3 6.66 3 7.32 3 8 C-31.65 7.67 -66.3 7.34 -102 7 C-103 5 -103 5 -103 2 C-102.28972656 2.01160156 -101.57945312 2.02320313 -100.84765625 2.03515625 C-99.92855469 2.04417969 -99.00945312 2.05320313 -98.0625 2.0625 C-96.68771484 2.07990234 -96.68771484 2.07990234 -95.28515625 2.09765625 C-93.03406673 2.25949049 -93.03406673 2.25949049 -92 1 C-89.39040355 0.874886 -86.80596716 0.81393939 -84.19482422 0.79467773 C-82.96789101 0.77982834 -82.96789101 0.77982834 -81.71617126 0.76467896 C-78.99570664 0.73294336 -76.27522481 0.70824625 -73.5546875 0.68359375 C-71.66716051 0.66302164 -69.7796381 0.64202509 -67.89212036 0.62062073 C-62.90698047 0.56528663 -57.92179793 0.51595418 -52.93658447 0.46777344 C-47.88476557 0.41782024 -42.83301321 0.3618917 -37.78125 0.30664062 C-30.38137695 0.22678202 -22.98148938 0.14869979 -15.58154297 0.07592773 C-14.42943077 0.06425819 -14.42943077 0.06425819 -13.25404358 0.05235291 C-8.83578261 0.00978771 -4.41846739 -0.00707497 0 0 Z " fill="#2762A8" transform="translate(313,170)"/>
<path d="M0 0 C0.33 0 0.66 0 1 0 C1.495 4.455 1.495 4.455 2 9 C1.01 9.33 0.02 9.66 -1 10 C-1 10.66 -1 11.32 -1 12 C-1.66 12 -2.32 12 -3 12 C-4.4747848 16.60870251 -4.49324634 21.15032621 -3.25 25.8125 C-1.78399204 28.37801393 -0.63232231 28.81759506 2 30 C1.71572583 31.58467728 1.42225182 33.1677057 1.125 34.75 C0.96257812 35.63171875 0.80015625 36.5134375 0.6328125 37.421875 C0.01031685 39.95796838 -0.52823836 41.84236886 -2 44 C-4.05859375 44.94140625 -4.05859375 44.94140625 -6.4375 45.5625 C-9.8317062 46.46277545 -11.68940066 47.31792166 -14 50 C-14.33 49.01 -14.66 48.02 -15 47 C-15.66 46.67 -16.32 46.34 -17 46 C-17 45.34 -17 44.68 -17 44 C-18.485 44.495 -18.485 44.495 -20 45 C-21.22520264 48.00847418 -21.22520264 48.00847418 -22 51 C-26.72073922 49.50924025 -26.72073922 49.50924025 -28.0625 47.0625 C-28.371875 46.381875 -28.68125 45.70125 -29 45 C-29.70125 44.505 -30.4025 44.01 -31.125 43.5 C-31.74375 43.005 -32.3625 42.51 -33 42 C-33 40.68 -33 39.36 -33 38 C-33.99 38 -34.98 38 -36 38 C-35.67 36.68 -35.34 35.36 -35 34 C-34.67 34.99 -34.34 35.98 -34 37 C-33.34 37 -32.68 37 -32 37 C-27 42.47619048 -27 42.47619048 -27 45 C-25.68 45 -24.36 45 -23 45 C-17.03108262 33.01660098 -15.65355116 23.35752733 -16 10 C-15.67 10.99 -15.34 11.98 -15 13 C-11.535 12.505 -11.535 12.505 -8 12 C-7.67 10.02 -7.34 8.04 -7 6 C-6.01 6 -5.02 6 -4 6 C-4 6.66 -4 7.32 -4 8 C-2.68 8 -1.36 8 0 8 C0 5.36 0 2.72 0 0 Z " fill="#3A70B3" transform="translate(376,244)"/>
<path d="M0 0 C5.90158761 -0.73769845 10.41125334 2.1374857 15.046875 5.47265625 C25.59683652 14.12117122 33.23151397 27.42789792 35 41 C37.64 40.67 40.28 40.34 43 40 C43 36.7 43 33.4 43 30 C64.32991723 27.05794245 64.32991723 27.05794245 70 31 C70.9375 33.4375 70.9375 33.4375 71 36 C68.9152658 39.188417 65.42715658 40.56059424 62 42 C59.125 42.1875 59.125 42.1875 57 42 C58.125 40.0625 58.125 40.0625 60 38 C63.1875 37.25 63.1875 37.25 66 37 C66.33 35.35 66.66 33.7 67 32 C59.41 31.67 51.82 31.34 44 31 C44 34.63 44 38.26 44 42 C40.27034861 44.03435531 38.33094958 45 34 45 C33.67 44.01 33.34 43.02 33 42 C32.01 41.34 31.02 40.68 30 40 C30.99 39.505 30.99 39.505 32 39 C32 38.01 32 37.02 32 36 C30.35 36 28.7 36 27 36 C26.67 36.99 26.34 37.98 26 39 C24.74335022 36.09399739 24 34.20395416 24 31 C23.34 31 22.68 31 22 31 C21.5875 29.783125 21.175 28.56625 20.75 27.3125 C19.3828548 23.616629 17.56690736 21.00947759 15 18 C15 17.34 15 16.68 15 16 C14.34 16 13.68 16 13 16 C13 15.34 13 14.68 13 14 C12.34 14 11.68 14 11 14 C11 13.34 11 12.68 11 12 C10.01 12 9.02 12 8 12 C8 11.34 8 10.68 8 10 C3.545 9.01 3.545 9.01 -1 8 C0.32 7.67 1.64 7.34 3 7 C3 6.34 3 5.68 3 5 C4.98 5 6.96 5 9 5 C9 4.34 9 3.68 9 3 C7.68 3.33 6.36 3.66 5 4 C4.67 3.01 4.34 2.02 4 1 C1.98491642 0.26676204 1.98491642 0.26676204 0 0 Z " fill="#3F72AF" transform="translate(313,171)"/>
<path d="M0 0 C-1 3 -1 3 -4.45703125 4.97265625 C-5.90392004 5.67946209 -7.35602085 6.37567387 -8.8125 7.0625 C-9.53759766 7.41376953 -10.26269531 7.76503906 -11.00976562 8.12695312 C-12.3686326 8.78462982 -13.72951432 9.43817164 -15.09301758 10.08618164 C-17.07355598 11.03524773 -19.03815512 12.01295105 -21 13 C-21 13.66 -21 14.32 -21 15 C-21.66 15 -22.32 15 -23 15 C-24.35823084 18.77286344 -25.11523982 21.32136552 -24.4375 25.3125 C-22.62185294 28.70697059 -21.63019356 28.89515848 -18 30 C-16.72138929 30.65162601 -15.45112838 31.31977568 -14.1875 32 C-6.4030153 35.89949048 1.42503496 36.45691888 10 37 C10 37.33 10 37.66 10 38 C7.06294869 38.22155127 4.12619637 38.42774197 1.1875 38.625 C0.35412109 38.68945312 -0.47925781 38.75390625 -1.33789062 38.8203125 C-2.14033203 38.871875 -2.94277344 38.9234375 -3.76953125 38.9765625 C-4.87711792 39.05511475 -4.87711792 39.05511475 -6.00708008 39.13525391 C-8 39 -8 39 -11 37 C-11.99 37 -12.98 37 -14 37 C-14.33 38.32 -14.66 39.64 -15 41 C-12.03 41.99 -9.06 42.98 -6 44 C-6 44.66 -6 45.32 -6 46 C-5.30132812 46.08636719 -4.60265625 46.17273438 -3.8828125 46.26171875 C-1.16244662 46.68171858 1.38319754 47.14081652 4 48 C5.375 50.5 5.375 50.5 6 53 C8.01735205 54.34410262 8.01735205 54.34410262 10 55 C8.68 55.66 7.36 56.32 6 57 C4.5 55.75 4.5 55.75 3 54 C3 52.68 3 51.36 3 50 C2.39414063 49.90203125 1.78828125 49.8040625 1.1640625 49.703125 C-10.33137912 47.6516308 -22.34774549 43.44965115 -29.8671875 34.01953125 C-32.68896788 28.98897796 -32.44205577 23.83137389 -31.125 18.375 C-24.83828908 8.39022383 -14.77970711 3.52771806 -3.70703125 0.33984375 C-2 0 -2 0 0 0 Z " fill="#3D71AA" transform="translate(148,263)"/>
<path d="M0 0 C4.29298926 0.47699881 6.28528652 2.79803025 9 6 C9.45375 7.134375 9.9075 8.26875 10.375 9.4375 C12.20574062 13.45104674 14.12721361 15.13340159 17.57421875 17.73828125 C18.27998047 18.36283203 18.27998047 18.36283203 19 19 C19 19.66 19 20.32 19 21 C18.34 21 17.68 21 17 21 C17.66 23.97 18.32 26.94 19 30 C20.32 29.67 21.64 29.34 23 29 C26 29 26 29 28.625 31.4375 C29.40875 32.283125 30.1925 33.12875 31 34 C31.98267859 35.20561184 31.98267859 35.20561184 33.84765625 35.09765625 C35.8984375 35.06510417 37.94921875 35.03255208 40 35 C40.33 35.66 40.66 36.32 41 37 C37.37 37.33 33.74 37.66 30 38 C29.67 39.65 29.34 41.3 29 43 C28 40 28 40 28 38 C27.34 38 26.68 38 26 38 C26 37.34 26 36.68 26 36 C24.68 36 23.36 36 22 36 C21.61521484 36.87785156 21.61521484 36.87785156 21.22265625 37.7734375 C19.89437838 40.19234608 18.43475199 41.73198872 16.4375 43.625 C13.85984611 46.04521959 13.85984611 46.04521959 12 49 C11.34 49 10.68 49 10 49 C9.67 49.66 9.34 50.32 9 51 C9.33 49.35 9.66 47.7 10 46 C11.485 45.505 11.485 45.505 13 45 C12.67 43.68 12.34 42.36 12 41 C12.66 41 13.32 41 14 41 C14.33 40.34 14.66 39.68 15 39 C15.66 39 16.32 39 17 39 C17 37.68 17 36.36 17 35 C16.34 35 15.68 35 15 35 C15 34.34 15 33.68 15 33 C9.47371099 34.19194469 6.82180842 35.5991297 3 40 C2.01 39.67 1.02 39.34 0 39 C1.61594832 36.95880212 3.2856382 34.95927063 5 33 C5.66 33 6.32 33 7 33 C7.2475 32.4225 7.495 31.845 7.75 31.25 C9 29 9 29 11.125 27 C13.45596075 24.97055253 13.45596075 24.97055253 13 21 C12.34 21 11.68 21 11 21 C11 20.34 11 19.68 11 19 C10.34 19 9.68 19 9 19 C9 18.34 9 17.68 9 17 C8.34 17 7.68 17 7 17 C6.67 16.34 6.34 15.68 6 15 C5.175 14.690625 4.35 14.38125 3.5 14.0625 C2.675 13.711875 1.85 13.36125 1 13 C0.67 12.01 0.34 11.02 0 10 C-0.66 10 -1.32 10 -2 10 C-4 7 -4 7 -3.8125 4.875 C-3.544375 4.25625 -3.27625 3.6375 -3 3 C-2.01 2.67 -1.02 2.34 0 2 C0 1.34 0 0.68 0 0 Z " fill="#3D71AE" transform="translate(291,233)"/>
<path d="M0 0 C1.64041101 0.00119568 3.28082271 0.00164414 4.92123413 0.00138855 C8.33848434 0.00294205 11.75562811 0.01114468 15.17285156 0.0246582 C19.52776748 0.04167318 23.8825673 0.04547098 28.23751259 0.04471302 C31.61777836 0.04498636 34.99801935 0.05049334 38.37827682 0.05771446 C39.98325794 0.06086976 41.58824182 0.06286109 43.19322586 0.06360817 C51.444335 0.07165981 59.57085389 0.2113722 67.7734375 1.23046875 C67.7734375 1.56046875 67.7734375 1.89046875 67.7734375 2.23046875 C66.71521286 2.24077621 65.65698822 2.25108368 64.56669617 2.26170349 C54.60474267 2.35936555 44.64285264 2.46209282 34.68100262 2.56980801 C29.55924834 2.62502477 24.43748835 2.67844285 19.31567383 2.7277832 C14.37491137 2.77544505 9.43421886 2.82778863 4.49353981 2.8834095 C2.60647124 2.90382478 0.7193835 2.92253923 -1.16771889 2.93954277 C-3.80630056 2.963605 -6.44474994 2.99365719 -9.08325195 3.02514648 C-10.25929237 3.03377968 -10.25929237 3.03377968 -11.45909119 3.04258728 C-14.63772206 3.08584304 -17.18930909 3.21805095 -20.2265625 4.23046875 C-21.62095914 4.29712251 -23.01826125 4.31585074 -24.4140625 4.29296875 C-26.30125 4.26203125 -26.30125 4.26203125 -28.2265625 4.23046875 C-27.5665625 4.89046875 -26.9065625 5.55046875 -26.2265625 6.23046875 C-26.5565625 6.89046875 -26.8865625 7.55046875 -27.2265625 8.23046875 C-25.92924698 8.0659169 -24.63193146 7.90136505 -23.29530334 7.73182678 C-18.54710265 7.20705598 -13.89833995 7.130596 -9.12670898 7.20874023 C-8.26708054 7.21834778 -7.40745209 7.22795532 -6.52177429 7.237854 C-3.71364302 7.2705253 -0.9056833 7.31097625 1.90234375 7.3515625 C3.86245643 7.37589487 5.82257525 7.39973681 7.78269958 7.42311096 C12.91682996 7.48564194 18.05085018 7.55479473 23.18487549 7.62536621 C28.43374661 7.69633125 33.6826952 7.76097906 38.93164062 7.82617188 C49.21232476 7.95478421 59.49290354 8.09039812 69.7734375 8.23046875 C69.7734375 8.56046875 69.7734375 8.89046875 69.7734375 9.23046875 C68.10213272 9.24259903 68.10213272 9.24259903 66.39706421 9.25497437 C55.89150455 9.33249339 45.38607347 9.42024736 34.88068199 9.51799583 C29.47988829 9.56791982 24.07911378 9.61425033 18.67822266 9.65234375 C13.46507534 9.68924561 8.2520901 9.73561912 3.03908157 9.78853226 C1.05123363 9.80705012 -0.93664902 9.82216769 -2.9245491 9.83381271 C-5.71109832 9.85071968 -8.49727848 9.8797657 -11.28369141 9.91162109 C-12.10368622 9.91378128 -12.92368103 9.91594147 -13.76852417 9.91816711 C-18.30212434 9.98427988 -21.9558351 10.51580285 -26.2265625 12.23046875 C-26.2265625 12.89046875 -26.2265625 13.55046875 -26.2265625 14.23046875 C-27.6015625 15.85546875 -27.6015625 15.85546875 -29.2265625 17.23046875 C-29.8865625 17.23046875 -30.5465625 17.23046875 -31.2265625 17.23046875 C-31.5153125 18.01421875 -31.8040625 18.79796875 -32.1015625 19.60546875 C-33.2265625 22.23046875 -33.2265625 22.23046875 -35.2265625 24.23046875 C-34.4765625 17.48046875 -34.4765625 17.48046875 -32.2265625 15.23046875 C-32.54697647 12.62766307 -32.54697647 12.62766307 -33.2265625 10.23046875 C-35.8665625 10.89046875 -38.5065625 11.55046875 -41.2265625 12.23046875 C-38.19732505 6.67686676 -35.15942621 4.35197926 -29.2265625 2.23046875 C-19.57677903 -0.12541694 -9.85751843 -0.04799122 0 0 Z " fill="#8CB3D0" transform="translate(238.2265625,168.76953125)"/>
<path d="M0 0 C0.33 1.32 0.66 2.64 1 4 C-0.98 4.99 -0.98 4.99 -3 6 C-2.67 7.32 -2.34 8.64 -2 10 C-1.41992188 9.95359375 -0.83984375 9.9071875 -0.2421875 9.859375 C5.57664466 9.59051807 8.2182057 10.4656303 13 14 C15.31778492 14.85739198 17.59043636 15.42170473 20 16 C20 16.66 20 17.32 20 18 C21.65 18 23.3 18 25 18 C25 18.66 25 19.32 25 20 C18.95304186 18.81043446 13.41317146 17.15480065 7.67578125 14.90234375 C4.50359379 13.75341901 4.50359379 13.75341901 -1 13 C-0.67 17.29 -0.34 21.58 0 26 C-0.99 25.67 -1.98 25.34 -3 25 C-4.20272819 22.59454362 -4.10071472 21.05003047 -4.0625 18.375 C-4.05347656 17.55773437 -4.04445312 16.74046875 -4.03515625 15.8984375 C-4.02355469 15.27195313 -4.01195312 14.64546875 -4 14 C-5.32 13.67 -6.64 13.34 -8 13 C-8.20496094 13.83144531 -8.40992188 14.66289062 -8.62109375 15.51953125 C-8.89050781 16.60621094 -9.15992188 17.69289062 -9.4375 18.8125 C-9.70433594 19.89144531 -9.97117188 20.97039062 -10.24609375 22.08203125 C-10.76077412 24.0740843 -11.34937175 26.04811524 -12 28 C-12.08630926 29.45781722 -12.11770981 30.91927474 -12.11352539 32.37963867 C-12.11344986 33.26032516 -12.11337433 34.14101166 -12.11329651 35.04838562 C-12.10813522 35.99534805 -12.10297394 36.94231049 -12.09765625 37.91796875 C-12.0962413 38.89034988 -12.09482635 39.86273102 -12.09336853 40.86457825 C-12.08776817 43.97225004 -12.07521562 47.07984996 -12.0625 50.1875 C-12.05748505 52.29361875 -12.05292213 54.39973863 -12.04882812 56.50585938 C-12.03779862 61.67060064 -12.02053375 66.83528813 -12 72 C-11.08476562 72.09796875 -10.16953125 72.1959375 -9.2265625 72.296875 C-8.03804687 72.44640625 -6.84953125 72.5959375 -5.625 72.75 C-4.44164062 72.88921875 -3.25828125 73.0284375 -2.0390625 73.171875 C-0.53472656 73.58179688 -0.53472656 73.58179688 1 74 C1.66 75.32 2.32 76.64 3 78 C-0.3 78 -3.6 78 -7 78 C-5.515 77.01 -5.515 77.01 -4 76 C-4.62648437 75.93941406 -5.25296875 75.87882812 -5.8984375 75.81640625 C-7.12433594 75.69072266 -7.12433594 75.69072266 -8.375 75.5625 C-9.59316406 75.44068359 -9.59316406 75.44068359 -10.8359375 75.31640625 C-13 75 -13 75 -15 74 C-15.07673368 67.11734243 -15.12888367 60.23479716 -15.16479492 53.35180664 C-15.1797826 51.01550169 -15.20017967 48.67922438 -15.22631836 46.34301758 C-15.58575249 13.36669805 -15.58575249 13.36669805 -7 3 C-4.32273404 0.48022027 -3.70908301 0 0 0 Z " fill="#386CAE" transform="translate(166,224)"/>
<path d="M0 0 C7.59 0 15.18 0 23 0 C24 3 24 3 23.0625 5.1875 C22.711875 5.785625 22.36125 6.38375 22 7 C20.02 7 18.04 7 16 7 C15.67 8.65 15.34 10.3 15 12 C13.58461283 12.33872513 12.16762037 12.67074624 10.75 13 C9.96109375 13.185625 9.1721875 13.37125 8.359375 13.5625 C6 14 6 14 2 14 C2 13.34 2 12.68 2 12 C0.68 12.33 -0.64 12.66 -2 13 C-2 12.34 -2 11.68 -2 11 C-1.34 11 -0.68 11 0 11 C0 7.37 0 3.74 0 0 Z " fill="#2967B3" transform="translate(357,202)"/>
<path d="M0 0 C1.98925781 1.56542969 1.98925781 1.56542969 4 4 C4.36230469 7.20800781 4.36230469 7.20800781 4.171875 10.953125 C4.13009125 11.94345734 4.13009125 11.94345734 4.08746338 12.95379639 C3.99439412 15.05397841 3.87262922 17.15135714 3.75 19.25 C3.68169336 20.67699363 3.61526583 22.10407854 3.55078125 23.53125 C3.38894575 27.02215461 3.20135423 30.51112632 3 34 C2.67 34 2.34 34 2 34 C1.67 28.39 1.34 22.78 1 17 C0.34 16.67 -0.32 16.34 -1 16 C-1.66 15.34 -2.32 14.68 -3 14 C-3.33 14.66 -3.66 15.32 -4 16 C-4.33 16 -4.66 16 -5 16 C-4.67 17.98 -4.34 19.96 -4 22 C-4.99 22.33 -5.98 22.66 -7 23 C-7 25.31 -7 27.62 -7 30 C-7.33 30 -7.66 30 -8 30 C-8.10957031 29.41992188 -8.21914062 28.83984375 -8.33203125 28.2421875 C-9.10562514 24.4308225 -9.7394607 21.43733382 -11.75 18.0625 C-13.62620993 13.46578568 -12.28190622 9.66650754 -11 5 C-10.28972656 4.80664062 -9.57945312 4.61328125 -8.84765625 4.4140625 C-7.92855469 4.15367187 -7.00945312 3.89328125 -6.0625 3.625 C-5.14597656 3.36976563 -4.22945312 3.11453125 -3.28515625 2.8515625 C-0.83254913 2.23339896 -0.83254913 2.23339896 0 0 Z " fill="#3B76BC" transform="translate(259,237)"/>
<path d="M0 0 C0.99 0 1.98 0 3 0 C3 0.66 3 1.32 3 2 C2.34 2 1.68 2 1 2 C1.0311941 4.86734521 1.0311941 4.86734521 2 8 C4.93942994 10.40521237 4.93942994 10.40521237 8 12 C8.2475 11.236875 8.495 10.47375 8.75 9.6875 C10.10995558 6.7635955 11.31585826 5.69995644 14 4 C16.31327084 6.31327084 16.36356952 7.23335562 16.875 10.375 C18.00782811 15.93210167 20.34974513 17.89983008 25 21 C23.35 21.33 21.7 21.66 20 22 C19.34 20.68 18.68 19.36 18 18 C14.85262818 18.69941596 11.97411124 19.76078698 9 21 C8.0158875 19.73299277 7.03788503 18.4612381 6.0625 17.1875 C5.51722656 16.47980469 4.97195313 15.77210938 4.41015625 15.04296875 C3 13 3 13 2 10 C1.34 10 0.68 10 0 10 C0 9.34 0 8.68 0 8 C-0.66 8 -1.32 8 -2 8 C-2 7.34 -2 6.68 -2 6 C-2.78375 5.71125 -3.5675 5.4225 -4.375 5.125 C-7 4 -7 4 -9 2 C-7.329375 2.061875 -7.329375 2.061875 -5.625 2.125 C-1.95633975 2.41121859 -1.95633975 2.41121859 0 0 Z " fill="#2F6BB1" transform="translate(345,218)"/>
<path d="M0 0 C1.32 0.33 2.64 0.66 4 1 C5.45490694 5.36472082 5.90396005 9.63471594 4.24609375 13.97265625 C2.37068403 17.43664833 0.55929115 20.26845295 -3 22 C-5.29494007 22.38388088 -7.55803788 22.62468396 -9.87890625 22.7890625 C-12.18743057 22.93981327 -12.18743057 22.93981327 -15 24 C-15.33 24.99 -15.66 25.98 -16 27 C-18 24 -18 24 -18 22 C-17.19175781 21.89042969 -16.38351562 21.78085938 -15.55078125 21.66796875 C-14.48214844 21.50941406 -13.41351563 21.35085937 -12.3125 21.1875 C-11.25675781 21.03667969 -10.20101563 20.88585937 -9.11328125 20.73046875 C-5.86941068 19.96935985 -3.67610405 18.97108221 -1 17 C-1 16.34 -1 15.68 -1 15 C-3.39763185 12.60236815 -4.33273498 12.65719414 -7.625 12.375 C-8.85089844 12.26285156 -8.85089844 12.26285156 -10.1015625 12.1484375 C-10.72804688 12.09945312 -11.35453125 12.05046875 -12 12 C-12 11.01 -12 10.02 -12 9 C-11.67 9.33 -11.34 9.66 -11 10 C-9.00041636 10.04080783 -6.99954746 10.04254356 -5 10 C-3.35 6.7 -1.7 3.4 0 0 Z " fill="#6388B6" transform="translate(338,234)"/>
<path d="M0 0 C1.65 1.65 3.3 3.3 5 5 C5.66 4.01 6.32 3.02 7 2 C7.66 2.33 8.32 2.66 9 3 C9 3.66 9 4.32 9 5 C8.34 5 7.68 5 7 5 C6.81244141 5.85078125 6.81244141 5.85078125 6.62109375 6.71875 C5.96902269 9.1137783 5.08766815 11.24076152 4.0625 13.5 C3.55396484 14.62921875 3.55396484 14.62921875 3.03515625 15.78125 C2.05894873 17.87364951 1.04374792 19.94058707 0 22 C0.03480469 21.22914063 0.06960938 20.45828125 0.10546875 19.6640625 C0.13253906 18.66117188 0.15960938 17.65828125 0.1875 16.625 C0.22230469 15.62726563 0.25710938 14.62953125 0.29296875 13.6015625 C0.19628906 12.74304688 0.09960938 11.88453125 0 11 C-0.99 10.34 -1.98 9.68 -3 9 C-3 9.33 -3 9.66 -3 10 C-6.8610854 11.43668294 -9.896427 12.11185208 -14 12 C-14.19551338 13.60320974 -14.38111983 15.20762986 -14.5625 16.8125 C-14.71912109 18.15248047 -14.71912109 18.15248047 -14.87890625 19.51953125 C-15.15658709 22.13375572 -15.15658709 22.13375572 -14 25 C-15.32 24.67 -16.64 24.34 -18 24 C-17.7455873 20.98721802 -17.39669355 17.99724013 -17 15 C-16.855625 13.88625 -16.71125 12.7725 -16.5625 11.625 C-14.62680525 8.37303281 -13.68398544 8.38342711 -10.125 7.4375 C-9.23167969 7.22222656 -8.33835938 7.00695312 -7.41796875 6.78515625 C-4.10918885 5.71073822 -2.7699614 3.92428405 -1 1 C-0.67 0.67 -0.34 0.34 0 0 Z " fill="#4977B3" transform="translate(262,230)"/>
<path d="M0 0 C0 0.66 0 1.32 0 2 C0.66 2 1.32 2 2 2 C2 3.32 2 4.64 2 6 C1.34 6 0.68 6 0 6 C-0.33 6.99 -0.66 7.98 -1 9 C-2 12 -2 12 -5 14 C-5.72382467 16.05925139 -5.72382467 16.05925139 -6 18 C-6.66 17.67 -7.32 17.34 -8 17 C-8.0825 16.360625 -8.165 15.72125 -8.25 15.0625 C-8.4975 14.381875 -8.745 13.70125 -9 13 C-11.99615946 11.6954344 -11.99615946 11.6954344 -15 11 C-15.33 11.99 -15.66 12.98 -16 14 C-17 12 -17 12 -16.4375 9.5625 C-14.55323319 6.2035896 -12.4418452 5.57751238 -9 4 C-8.34 3.01 -7.68 2.02 -7 1 C-4 0 -4 0 0 0 Z " fill="#2967B4" transform="translate(306,266)"/>
<path d="M0 0 C1.0528418 0.01353516 1.0528418 0.01353516 2.12695312 0.02734375 C3.85561525 0.05086296 5.58410145 0.08673287 7.3125 0.125 C7.3125 0.455 7.3125 0.785 7.3125 1.125 C5.95705078 1.18107422 5.95705078 1.18107422 4.57421875 1.23828125 C3.39472656 1.30402344 2.21523437 1.36976563 1 1.4375 C-0.17175781 1.49550781 -1.34351563 1.55351562 -2.55078125 1.61328125 C-5.7858686 2.14104768 -6.77434881 2.54880724 -8.6875 5.125 C-8.0275 5.125 -7.3675 5.125 -6.6875 5.125 C-6.6875 4.465 -6.6875 3.805 -6.6875 3.125 C-3.7175 3.125 -0.7475 3.125 2.3125 3.125 C2.6425 4.115 2.9725 5.105 3.3125 6.125 C2.35951223 7.49233028 1.35875409 8.82764493 0.3125 10.125 C0.3125 10.785 0.3125 11.445 0.3125 12.125 C1.59125 12.2075 2.87 12.29 4.1875 12.375 C6.3984375 12.63671875 6.3984375 12.63671875 8.3125 13.125 C9.8125 15.1875 9.8125 15.1875 10.3125 17.125 C9.6525 17.455 8.9925 17.785 8.3125 18.125 C5.62295545 17.12011522 3.04935356 16.05380117 0.4375 14.875 C-0.28308594 14.56175781 -1.00367188 14.24851563 -1.74609375 13.92578125 C-5.38209358 12.31201337 -8.62676514 10.72101596 -11.6875 8.125 C-11.375 5.25 -11.375 5.25 -10.6875 2.125 C-7.00662647 -0.32891569 -4.24394412 -0.10302759 0 0 Z " fill="#2668B6" transform="translate(157.6875,199.875)"/>
<path d="M0 0 C0.66 0 1.32 0 2 0 C2.33 15.84 2.66 31.68 3 48 C7.29 48.66 11.58 49.32 16 50 C16.66 51.32 17.32 52.64 18 54 C14.7 54 11.4 54 8 54 C8.99 53.34 9.98 52.68 11 52 C10.06027344 51.90912109 10.06027344 51.90912109 9.1015625 51.81640625 C8.28429687 51.73261719 7.46703125 51.64882813 6.625 51.5625 C5.81289062 51.48128906 5.00078125 51.40007812 4.1640625 51.31640625 C2 51 2 51 0 50 C0 33.5 0 17 0 0 Z " fill="#577BAE" transform="translate(151,248)"/>
<path d="M0 0 C0.33 0.99 0.66 1.98 1 3 C2.99203598 3.088643 2.99203598 3.088643 4.8125 2.5 C7.26502616 1.93942259 9.49237135 1.93034365 12 2 C12.33 2.99 12.66 3.98 13 5 C12.67 5.66 12.34 6.32 12 7 C12.66 7 13.32 7 14 7 C14.33 6.34 14.66 5.68 15 5 C15.33 5.99 15.66 6.98 16 8 C15.34 8 14.68 8 14 8 C14 8.66 14 9.32 14 10 C11.26762206 9.96686201 8.54325157 9.89958039 5.8125 9.8125 C5.04357422 9.80669922 4.27464844 9.80089844 3.48242188 9.79492188 C-0.77188379 9.63059247 -2.54079772 9.36315998 -5.98828125 6.63671875 C-8 4 -8 4 -9 1 C-5.94152152 0.45627049 -3.11227195 0 0 0 Z " fill="#2E69B3" transform="translate(310,204)"/>
<path d="M0 0 C-0.84675463 3.91289773 -2.45327977 7.27685019 -4.16015625 10.87890625 C-5.18407049 13.08466663 -5.18407049 13.08466663 -5 16 C-7.2477975 13.94766315 -8.0022242 12.99332739 -9 10 C-8.34 9.34 -7.68 8.68 -7 8 C-8.32 7.67 -9.64 7.34 -11 7 C-11 8.65 -11 10.3 -11 12 C-11.66 12 -12.32 12 -13 12 C-13.20589721 19.56407533 -13.20589721 19.56407533 -12 27 C-14.31 26.34 -16.62 25.68 -19 25 C-18.26716797 24.17242187 -18.26716797 24.17242187 -17.51953125 23.328125 C-15.70858925 20.55351978 -15.70154571 19.02733224 -15.6875 15.75 C-15.30676801 9.82485834 -13.33341764 6.04925911 -9 2 C-5.84028788 0.11878411 -3.67604279 -0.2042246 0 0 Z " fill="#2C63A4" transform="translate(329,227)"/>
<path d="M0 0 C0.33 0 0.66 0 1 0 C1.33 4.62 1.66 9.24 2 14 C3.32 14.33 4.64 14.66 6 15 C6 15.99 6 16.98 6 18 C6.66 18.33 7.32 18.66 8 19 C4.75 19.8125 4.75 19.8125 1 20 C-1.84340417 17.83003366 -2.77895007 16.02235592 -3.53125 12.54296875 C-4.42162577 5.63243865 -4.42162577 5.63243865 -2 2 C-1.34 2 -0.68 2 0 2 C0 1.34 0 0.68 0 0 Z " fill="#2766B3" transform="translate(120,280)"/>
<path d="M0 0 C0.9375 2.4375 0.9375 2.4375 1 5 C-1.0847342 8.188417 -4.57284342 9.56059424 -8 11 C-10.875 11.1875 -10.875 11.1875 -13 11 C-11.875 9.0625 -11.875 9.0625 -10 7 C-6.8125 6.25 -6.8125 6.25 -4 6 C-3.67 4.35 -3.34 2.7 -3 1 C-14.385 0.505 -14.385 0.505 -26 0 C-26 3.3 -26 6.6 -26 10 C-26.66 9.67 -27.32 9.34 -28 9 C-27.67 5.7 -27.34 2.4 -27 -1 C-5.67008277 -3.94205755 -5.67008277 -3.94205755 0 0 Z " fill="#6180AE" transform="translate(383,202)"/>
<path d="M0 0 C3.6739599 3.37607126 6.05406554 6.39120786 8 11 C8 11.66 8 12.32 8 13 C6.68 13 5.36 13 4 13 C3.01 13.495 3.01 13.495 2 14 C1.67 13.01 1.34 12.02 1 11 C1 12.32 1 13.64 1 15 C1.99 15 2.98 15 4 15 C3.67 16.65 3.34 18.3 3 20 C2.67 19.01 2.34 18.02 2 17 C1.34 17 0.68 17 0 17 C-0.433125 15.783125 -0.86625 14.56625 -1.3125 13.3125 C-2.56201629 9.96260633 -4.03123567 7.00002183 -6 4 C-5.01 3.67 -4.02 3.34 -3 3 C-2.01 3.99 -1.02 4.98 0 6 C0 4.02 0 2.04 0 0 Z " fill="#5885B8" transform="translate(335,185)"/>
<path d="M0 0 C0.33 0 0.66 0 1 0 C0.938125 0.825 0.87625 1.65 0.8125 2.5 C1.01349888 6.25197914 1.93659494 8.77712727 3.44140625 12.16796875 C4 14 4 14 3 17 C2.34 17 1.68 17 1 17 C1 19.31 1 21.62 1 24 C0.67 24 0.34 24 0 24 C-0.10957031 23.41992188 -0.21914062 22.83984375 -0.33203125 22.2421875 C-1.10902196 18.41408692 -1.84483951 15.29308093 -3.6875 11.8125 C-5.28034676 8.39925695 -4.9385606 6.58359502 -4 3 C-3.01 2.67 -2.02 2.34 -1 2 C-0.67 1.34 -0.34 0.68 0 0 Z " fill="#2767B1" transform="translate(251,243)"/>
<path d="M0 0 C0.08152344 2.54232342 0.14073716 5.08199202 0.1875 7.625 C0.21263672 8.33785156 0.23777344 9.05070313 0.26367188 9.78515625 C0.33024446 14.62276416 -0.44440547 17.74738338 -3 22 C-3.33 22 -3.66 22 -4 22 C-4.66 19.36 -5.32 16.72 -6 14 C-5.01 14 -4.02 14 -3 14 C-2.67 9.71 -2.34 5.42 -2 1 C-8.6 1 -15.2 1 -22 1 C-22 1.66 -22 2.32 -22 3 C-22.66 3 -23.32 3 -24 3 C-23.67 2.01 -23.34 1.02 -23 0 C-16.77204542 -3.11397729 -6.74331816 -1.0577754 0 0 Z " fill="#2E609D" transform="translate(173,202)"/>
<path d="M0 0 C-1 3 -1 3 -2.53466797 4.04321289 C-3.50364014 4.50328735 -3.50364014 4.50328735 -4.4921875 4.97265625 C-5.54986328 5.48602539 -5.54986328 5.48602539 -6.62890625 6.00976562 C-7.37011719 6.35716797 -8.11132812 6.70457031 -8.875 7.0625 C-10.33153066 7.76004764 -11.78729011 8.45920842 -13.2421875 9.16015625 C-13.8904248 9.46574463 -14.53866211 9.77133301 -15.20654297 10.08618164 C-17.25629589 11.0867281 -17.25629589 11.0867281 -20 13 C-20 12.01 -20 11.02 -20 10 C-21.32 10.99 -22.64 11.98 -24 13 C-24.66 12.67 -25.32 12.34 -26 12 C-19.12432711 6.11523291 -9.37786165 0 0 0 Z " fill="#6D8CB0" transform="translate(148,263)"/>
<path d="M0 0 C0 0.66 0 1.32 0 2 C-0.60585938 2.09796875 -1.21171875 2.1959375 -1.8359375 2.296875 C-8.29193198 3.44902171 -13.99085065 5.41455087 -20 8 C-21.6650558 8.67067982 -23.33130425 9.33842859 -25 10 C-25 10.66 -25 11.32 -25 12 C-25.66 11.67 -26.32 11.34 -27 11 C-26.67 10.01 -26.34 9.02 -26 8 C-25.34 7.67 -24.68 7.34 -24 7 C-24 5.68 -24 4.36 -24 3 C-23.01 3 -22.02 3 -21 3 C-20.67 2.34 -20.34 1.68 -20 1 C-20 1.66 -20 2.32 -20 3 C-18.02 3 -16.04 3 -14 3 C-14 2.34 -14 1.68 -14 1 C-9.27685687 0.22887459 -4.78478822 -0.09764874 0 0 Z " fill="#527BB1" transform="translate(307,212)"/>
<path d="M0 0 C1.65 0 3.3 0 5 0 C6.61061919 4.07391912 7.47940089 6.78939746 6 11 C4.875 12.875 4.875 12.875 3 14 C-0.6875 13.6875 -0.6875 13.6875 -4 13 C-4 11.35 -4 9.7 -4 8 C-3.34 7.67 -2.68 7.34 -2 7 C-2 7.66 -2 8.32 -2 9 C-0.35 9 1.3 9 3 9 C2.505 8.071875 2.01 7.14375 1.5 6.1875 C0 3 0 3 0 0 Z " fill="#2766B0" transform="translate(340,207)"/>
<path d="M0 0 C3.3 0.33 6.6 0.66 10 1 C10 1.33 10 1.66 10 2 C8.4221875 2.0928125 8.4221875 2.0928125 6.8125 2.1875 C2.23109256 3.16386552 0.81369391 4.30200229 -2 8 C-2.226875 9.19625 -2.45375 10.3925 -2.6875 11.625 C-4 15 -4 15 -6.19921875 16.11328125 C-10.28941675 17.37318166 -13.69781647 18 -18 18 C-18 17.01 -18 16.02 -18 15 C-14.04 14.34 -10.08 13.68 -6 13 C-5.62875 11.453125 -5.62875 11.453125 -5.25 9.875 C-4.15920937 5.99399857 -2.37066116 3.23990359 0 0 Z " fill="#587FA9" transform="translate(339,312)"/>
<path d="M0 0 C1.29422379 0.00212242 1.29422379 0.00212242 2.61459351 0.00428772 C5.3759098 0.00989437 8.13714562 0.02244798 10.8984375 0.03515625 C12.768228 0.04017039 14.63801976 0.04473345 16.5078125 0.04882812 C21.09638527 0.05986596 25.68489773 0.07713505 30.2734375 0.09765625 C30.2734375 0.42765625 30.2734375 0.75765625 30.2734375 1.09765625 C29.31566406 1.10176514 28.35789062 1.10587402 27.37109375 1.11010742 C23.78478702 1.13203828 20.19955589 1.18646832 16.61376953 1.25024414 C15.06797673 1.27330364 13.5220295 1.28779137 11.97607422 1.29321289 C3.13011419 1.3303328 -3.47592048 1.44696457 -10.7265625 7.09765625 C-11.3865625 6.76765625 -12.0465625 6.43765625 -12.7265625 6.09765625 C-12.7265625 5.10765625 -12.7265625 4.11765625 -12.7265625 3.09765625 C-12.0665625 3.09765625 -11.4065625 3.09765625 -10.7265625 3.09765625 C-10.7265625 2.43765625 -10.7265625 1.77765625 -10.7265625 1.09765625 C-7.39500999 -0.56812 -3.66120191 -0.02242231 0 0 Z " fill="#597A9E" transform="translate(230.7265625,297.90234375)"/>
<path d="M0 0 C1.32 0 2.64 0 4 0 C4.226875 0.598125 4.45375 1.19625 4.6875 1.8125 C5.85938975 4.20931753 5.85938975 4.20931753 8.5 5.25 C12.25142608 7.87599825 12.20312169 10.58094757 13 15 C9.25474201 18.74525799 5.01729091 18.68909949 0 19 C3.25852365 16.8276509 6.59244728 14.92880342 10 13 C9.34 12.21625 8.68 11.4325 8 10.625 C6 8 6 8 6 6 C5.34 6 4.68 6 4 6 C4 5.34 4 4.68 4 4 C3.34 4 2.68 4 2 4 C1.34 2.68 0.68 1.36 0 0 Z " fill="#4D78AA" transform="translate(328,291)"/>
<path d="M0 0 C3.72433382 1.2125738 7.37802806 2.50859979 11 4 C8 6 8 6 5.8125 5.625 C5.214375 5.41875 4.61625 5.2125 4 5 C4.09539062 5.68707031 4.19078125 6.37414062 4.2890625 7.08203125 C4.39992188 7.98308594 4.51078125 8.88414062 4.625 9.8125 C4.74101562 10.70582031 4.85703125 11.59914063 4.9765625 12.51953125 C5 15 5 15 3 18 C2.566875 17.071875 2.13375 16.14375 1.6875 15.1875 C0.27961373 12.52815927 -0.76123556 10.91894095 -3 9 C-1.35 8.34 0.3 7.68 2 7 C1.24849977 3.72226496 1.24849977 3.72226496 -2 2 C-1.34 2 -0.68 2 0 2 C0 1.34 0 0.68 0 0 Z " fill="#5582B7" transform="translate(283,305)"/>
<path d="M0 0 C1.58294782 -0.05437607 3.16644256 -0.09296271 4.75 -0.125 C5.63171875 -0.14820313 6.5134375 -0.17140625 7.421875 -0.1953125 C10.1135858 0.00860498 11.69904974 0.63448279 14 2 C13.67 2.66 13.34 3.32 13 4 C12.34 4 11.68 4 11 4 C10.67 3.67 10.34 3.34 10 3 C9.01 3.66 8.02 4.32 7 5 C4.36450195 5.13525391 4.36450195 5.13525391 1.23828125 4.9765625 C0.12001953 4.925 -0.99824219 4.8734375 -2.15039062 4.8203125 C-3.31763672 4.75585938 -4.48488281 4.69140625 -5.6875 4.625 C-6.86634766 4.56828125 -8.04519531 4.5115625 -9.25976562 4.453125 C-12.17378352 4.31155328 -15.08695257 4.16013058 -18 4 C-18.33 3.34 -18.66 2.68 -19 2 C-11.58982977 1.88540974 -4.35793733 2.08839714 3 3 C3 2.34 3 1.68 3 1 C2.01 0.67 1.02 0.34 0 0 Z " fill="#275A98" transform="translate(166,299)"/>
<path d="M0 0 C1.8203125 0.19921875 1.8203125 0.19921875 4 1 C5.5546875 3.14453125 5.5546875 3.14453125 6.875 5.8125 C7.32617188 6.68519531 7.77734375 7.55789063 8.2421875 8.45703125 C9 11 9 11 7 15 C-1.91 15 -10.82 15 -20 15 C-20 14.67 -20 14.34 -20 14 C-7.625 13.505 -7.625 13.505 5 13 C4.22998773 9.14993864 3.6738858 6.99223427 1.9375 3.6875 C1.57527344 2.99011719 1.21304688 2.29273438 0.83984375 1.57421875 C0.42412109 0.79498047 0.42412109 0.79498047 0 0 Z " fill="#7999BD" transform="translate(208,250)"/>
<path d="M0 0 C1.32 0.33 2.64 0.66 4 1 C3.67 4.63 3.34 8.26 3 12 C1.68 12.33 0.36 12.66 -1 13 C-1 12.34 -1 11.68 -1 11 C-1.66 10.67 -2.32 10.34 -3 10 C-1.125 2.25 -1.125 2.25 0 0 Z " fill="#2D66B0" transform="translate(338,234)"/>
<path d="M0 0 C3.375 1.8125 3.375 1.8125 4.3125 4 C4.333125 4.598125 4.35375 5.19625 4.375 5.8125 C2.395 6.8025 0.415 7.7925 -1.625 8.8125 C-1.955 7.8225 -2.285 6.8325 -2.625 5.8125 C-3.285 5.8125 -3.945 5.8125 -4.625 5.8125 C-6.625 2.8125 -6.625 2.8125 -6.625 -0.1875 C-3.625 -1.1875 -3.625 -1.1875 0 0 Z " fill="#4872A8" transform="translate(293.625,237.1875)"/>
<path d="M0 0 C-0.33 1.65 -0.66 3.3 -1 5 C-1.66 5 -2.32 5 -3 5 C-4.94679922 10.47621693 -4.94679922 10.47621693 -4 16 C-4.99 15.67 -5.98 15.34 -7 15 C-7.33 13.02 -7.66 11.04 -8 9 C-8.99 9.33 -9.98 9.66 -11 10 C-9.7978674 5.32503988 -7.45867887 3.53616659 -3.65625 0.91796875 C-2 0 -2 0 0 0 Z " fill="#567CA8" transform="translate(128,273)"/>
<path d="M0 0 C0.99 0 1.98 0 3 0 C3 0.66 3 1.32 3 2 C2.34 2 1.68 2 1 2 C1.37328935 7.35048061 2.9957657 9.50912907 7 13 C6.34 13.66 5.68 14.32 5 15 C3.5 13.625 3.5 13.625 2 12 C2 11.34 2 10.68 2 10 C1.34 10 0.68 10 0 10 C0 9.34 0 8.68 0 8 C-0.66 8 -1.32 8 -2 8 C-2 7.34 -2 6.68 -2 6 C-2.78375 5.71125 -3.5675 5.4225 -4.375 5.125 C-7 4 -7 4 -9 2 C-7.329375 2.061875 -7.329375 2.061875 -5.625 2.125 C-1.95633975 2.41121859 -1.95633975 2.41121859 0 0 Z " fill="#4878B0" transform="translate(345,218)"/>
<path d="M0 0 C0.99 0 1.98 0 3 0 C1 6 -1 12 -3 18 C-3.66 17.67 -4.32 17.34 -5 17 C-5 13.37 -5 9.74 -5 6 C-4.01 6 -3.02 6 -2 6 C-1.34 4.02 -0.68 2.04 0 0 Z " fill="#537EB2" transform="translate(199,195)"/>
<path d="M0 0 C2.04749647 4.09499293 2.50258549 8.4827858 2 13 C-0.08651089 16.43349894 -2.47638636 19.03840066 -6 21 C-8.7734375 20.703125 -8.7734375 20.703125 -11 20 C-11 19.34 -11 18.68 -11 18 C-10.071875 17.731875 -9.14375 17.46375 -8.1875 17.1875 C-4.44337311 15.86196453 -4.44337311 15.86196453 -2 13 C-1.31826879 9.65331952 -1 6.53823483 -1 3.125 C-1 1 -1 1 0 0 Z " fill="#6C89B3" transform="translate(361,295)"/>
<path d="M0 0 C0.66 0.99 1.32 1.98 2 3 C-1.6319625 5.24138744 -4.97772083 5.42138961 -9.1875 5.6875 C-11.06501953 5.81705078 -11.06501953 5.81705078 -12.98046875 5.94921875 C-13.97691406 5.96597656 -14.97335938 5.98273438 -16 6 C-16.33 5.67 -16.66 5.34 -17 5 C-18.34747084 4.76924918 -19.70377565 4.58846937 -21.0625 4.4375 C-22.361875 4.293125 -23.66125 4.14875 -25 4 C-25 3.67 -25 3.34 -25 3 C-17.74 3 -10.48 3 -3 3 C-3 2.34 -3 1.68 -3 1 C-2.01 0.67 -1.02 0.34 0 0 Z " fill="#2C5F9C" transform="translate(249,271)"/>
<path d="M0 0 C0.495 0.495 0.99 0.99 1.5 1.5 C5.11630158 3.66978095 7.82231616 3.20888419 12 3 C12.33 3.66 12.66 4.32 13 5 C9.37 5.33 5.74 5.66 2 6 C1.67 7.65 1.34 9.3 1 11 C0 8 0 8 0 6 C-0.66 6 -1.32 6 -2 6 C-2 5.34 -2 4.68 -2 4 C-3.32 4 -4.64 4 -6 4 C-6.33 4.66 -6.66 5.32 -7 6 C-7 4.35 -7 2.7 -7 1 C-4.03 1.495 -4.03 1.495 -1 2 C-0.67 1.34 -0.34 0.68 0 0 Z " fill="#6D90B8" transform="translate(319,265)"/>
<path d="M0 0 C2.64 0 5.28 0 8 0 C7.01 1.485 7.01 1.485 6 3 C3.375 3.1875 3.375 3.1875 1 3 C0.80448662 4.60320974 0.61888017 6.20762986 0.4375 7.8125 C0.33308594 8.70582031 0.22867188 9.59914062 0.12109375 10.51953125 C-0.15658709 13.13375572 -0.15658709 13.13375572 1 16 C-0.32 15.67 -1.64 15.34 -3 15 C-2.5547115 9.72684667 -1.91626837 4.98229776 0 0 Z " fill="#3F669B" transform="translate(247,239)"/>
<path d="M0 0 C1.6926452 0.96248452 3.38246866 1.93087383 5.046875 2.94140625 C7.93581398 4.50721117 10.81619105 5.22029169 14 6 C14 6.66 14 7.32 14 8 C15.65 8 17.3 8 19 8 C19 8.66 19 9.32 19 10 C12.19813219 8.66192764 5.23077922 7.126516 -1 4 C-1.33 3.01 -1.66 2.02 -2 1 C-1.34 0.67 -0.68 0.34 0 0 Z " fill="#507DB6" transform="translate(172,234)"/>
<path d="M0 0 C2.97 0.33 5.94 0.66 9 1 C9 1.66 9 2.32 9 3 C10.27875 3.0825 11.5575 3.165 12.875 3.25 C15.0859375 3.51171875 15.0859375 3.51171875 17 4 C18.5 6.0625 18.5 6.0625 19 8 C18.01 8.495 18.01 8.495 17 9 C14.2473963 7.9747506 11.61163372 6.88865303 8.9375 5.6875 C8.19177734 5.36587891 7.44605469 5.04425781 6.67773438 4.71289062 C1.1293504 2.2587008 1.1293504 2.2587008 0 0 Z " fill="#547FAE" transform="translate(149,209)"/>
<path d="M0 0 C0.66 0.33 1.32 0.66 2 1 C5.33978388 1.4438397 8.6829513 1.83294036 12.03125 2.20703125 C13.0109375 2.46871094 13.990625 2.73039062 15 3 C15.66 4.32 16.32 5.64 17 7 C13.7 7 10.4 7 7 7 C7.99 6.34 8.98 5.68 10 5 C9.37351563 4.93941406 8.74703125 4.87882812 8.1015625 4.81640625 C7.28429687 4.73261719 6.46703125 4.64882813 5.625 4.5625 C4.40683594 4.44068359 4.40683594 4.44068359 3.1640625 4.31640625 C1 4 1 4 -1 3 C-0.67 2.01 -0.34 1.02 0 0 Z " fill="#6188B2" transform="translate(152,295)"/>
<path d="M0 0 C0.33 0 0.66 0 1 0 C1.33 2.97 1.66 5.94 2 9 C1.01 9.33 0.02 9.66 -1 10 C-1 10.66 -1 11.32 -1 12 C-1.66 12 -2.32 12 -3 12 C-3.66 13.32 -4.32 14.64 -5 16 C-6.125 9.25 -6.125 9.25 -5 7 C-5.66 6.67 -6.32 6.34 -7 6 C-6.01 6 -5.02 6 -4 6 C-4 6.66 -4 7.32 -4 8 C-2.68 8 -1.36 8 0 8 C0 5.36 0 2.72 0 0 Z " fill="#4176B4" transform="translate(376,244)"/>
<path d="M0 0 C0.66 0.99 1.32 1.98 2 3 C2.99 3.33 3.98 3.66 5 4 C5.33 3.01 5.66 2.02 6 1 C10 1 10 1 12.0625 2.875 C12.701875 3.57625 13.34125 4.2775 14 5 C14.99 5.66 15.98 6.32 17 7 C15.35 7.33 13.7 7.66 12 8 C11.34 6.68 10.68 5.36 10 4 C6.85262818 4.69941596 3.97411124 5.76078698 1 7 C0.01 5.02 -0.98 3.04 -2 1 C-1.34 0.67 -0.68 0.34 0 0 Z " fill="#4774B4" transform="translate(353,232)"/>
<path d="M0 0 C0.268125 0.804375 0.53625 1.60875 0.8125 2.4375 C1.204375 3.283125 1.59625 4.12875 2 5 C2.99 5.33 3.98 5.66 5 6 C4.01 6.495 4.01 6.495 3 7 C2.26394531 6.52949219 1.52789062 6.05898437 0.76953125 5.57421875 C-2.53995785 3.69308461 -4.54184353 3.68819264 -8.3125 3.8125 C-9.38113281 3.83957031 -10.44976562 3.86664063 -11.55078125 3.89453125 C-12.35902344 3.92933594 -13.16726563 3.96414062 -14 4 C-9.49667324 0.99778216 -5.42232421 -0.31896025 0 0 Z " fill="#6688B1" transform="translate(301,196)"/>
<path d="M0 0 C0.33 0.99 0.66 1.98 1 3 C1.66 3.33 2.32 3.66 3 4 C2.34 5.65 1.68 7.3 1 9 C-1 7 -1 7 -1.125 4.375 C-1.08375 3.59125 -1.0425 2.8075 -1 2 C-2.19625 2.495 -3.3925 2.99 -4.625 3.5 C-8.21101476 4.85911235 -11.13404799 5.2899464 -15 5 C-15 4.67 -15 4.34 -15 4 C-13.35 4 -11.7 4 -10 4 C-9.67 3.01 -9.34 2.02 -9 1 C-5.94152152 0.45627049 -3.11227195 0 0 0 Z " fill="#2B67AE" transform="translate(335,309)"/>
<path d="M0 0 C1.64666203 0.1135629 3.29236082 0.24117381 4.9375 0.375 C5.85402344 0.44460937 6.77054687 0.51421875 7.71484375 0.5859375 C8.84599609 0.79089844 8.84599609 0.79089844 10 1 C10.33 1.66 10.66 2.32 11 3 C12.32 3 13.64 3 15 3 C15 3.66 15 4.32 15 5 C12 6 12 6 9 5 C9 5.66 9 6.32 9 7 C6.36 7 3.72 7 1 7 C4 5 4 5 7 5 C4.85927699 2.64520469 2.8605891 1.35937085 0 0 Z " fill="#3265A5" transform="translate(307,171)"/>
<path d="M0 0 C2.76223278 2.76223278 2.57856291 5.20706617 3 9 C4.4540625 9.37125 4.4540625 9.37125 5.9375 9.75 C6.948125 10.1625 7.95875 10.575 9 11 C9.875 13.125 9.875 13.125 10 15 C5.75153925 14.52794881 3.73180712 12.11122478 1 9 C1 8.34 1 7.68 1 7 C0.34 7 -0.32 7 -1 7 C-0.67 4.69 -0.34 2.38 0 0 Z " fill="#6E8CB3" transform="translate(260,301)"/>
<path d="M0 0 C0.66 0 1.32 0 2 0 C1.43009348 3.59357719 0.13617523 5.17249271 -2.5 7.625 C-5.11806646 10.03610916 -5.11806646 10.03610916 -7 13 C-7.66 13 -8.32 13 -9 13 C-9.33 13.66 -9.66 14.32 -10 15 C-9.67 13.35 -9.34 11.7 -9 10 C-8.01 9.67 -7.02 9.34 -6 9 C-6.33 7.68 -6.66 6.36 -7 5 C-6.34 5 -5.68 5 -5 5 C-4.67 4.34 -4.34 3.68 -4 3 C-2.68 3 -1.36 3 0 3 C0 2.01 0 1.02 0 0 Z " fill="#4F78A8" transform="translate(310,269)"/>
<path d="M0 0 C3.37462715 0.54723683 5.08235 1.0549 8 3 C9.65549531 3.38499891 11.3222433 3.72793135 13 4 C12.34 5.32 11.68 6.64 11 8 C6.71 6.35 2.42 4.7 -2 3 C-1.34 2.67 -0.68 2.34 0 2 C0 1.34 0 0.68 0 0 Z " fill="#5077AF" transform="translate(324,212)"/>
<path d="M0 0 C-0.84675463 3.91289773 -2.45327977 7.27685019 -4.16015625 10.87890625 C-5.18407049 13.08466663 -5.18407049 13.08466663 -5 16 C-5.99 15.01 -6.98 14.02 -8 13 C-7.67 12.01 -7.34 11.02 -7 10 C-6.34 10 -5.68 10 -5 10 C-4.67 7.69 -4.34 5.38 -4 3 C-4.99 2.34 -5.98 1.68 -7 1 C-4.53721199 -0.231394 -2.7204945 -0.07159196 0 0 Z " fill="#6C8DB0" transform="translate(329,227)"/>
<path d="M0 0 C2.97 0.495 2.97 0.495 6 1 C4.02 1.99 4.02 1.99 2 3 C2 3.66 2 4.32 2 5 C0.625 6.625 0.625 6.625 -1 8 C-1.66 8 -2.32 8 -3 8 C-3.28875 8.78375 -3.5775 9.5675 -3.875 10.375 C-5 13 -5 13 -7 15 C-6.75 11.625 -6.75 11.625 -6 8 C-3.9375 6.5625 -3.9375 6.5625 -2 6 C-2 5.34 -2 4.68 -2 4 C-1.34 4 -0.68 4 0 4 C0 2.68 0 1.36 0 0 Z " fill="#6187B3" transform="translate(210,178)"/>
<path d="M0 0 C1.2375 0.144375 2.475 0.28875 3.75 0.4375 C9.49002931 1.07833262 15.24293318 1.5421622 21 2 C21 2.33 21 2.66 21 3 C18.06294869 3.22155127 15.12619637 3.42774197 12.1875 3.625 C11.35412109 3.68945312 10.52074219 3.75390625 9.66210938 3.8203125 C8.45844727 3.89765625 8.45844727 3.89765625 7.23046875 3.9765625 C6.12288208 4.05511475 6.12288208 4.05511475 4.99291992 4.13525391 C3 4 3 4 0 2 C0 1.34 0 0.68 0 0 Z " fill="#5884B7" transform="translate(137,298)"/>
<path d="M0 0 C16.335 0.495 16.335 0.495 33 1 C33 1.33 33 1.66 33 2 C23.1 2.33 13.2 2.66 3 3 C3 2.34 3 1.68 3 1 C2.01 0.67 1.02 0.34 0 0 Z " fill="#2A5B94" transform="translate(181,264)"/>
<path d="M0 0 C0.78375 0.04125 1.5675 0.0825 2.375 0.125 C1.055 0.455 -0.265 0.785 -1.625 1.125 C-1.295 5.415 -0.965 9.705 -0.625 14.125 C-1.615 13.795 -2.605 13.465 -3.625 13.125 C-4.80173198 10.77153604 -4.79123866 9.2443967 -4.8125 6.625 C-4.82667969 5.8309375 -4.84085938 5.036875 -4.85546875 4.21875 C-4.48390778 0.84321305 -3.29314163 0.15681627 0 0 Z " fill="#557DB0" transform="translate(166.625,235.875)"/>
<path d="M0 0 C1.8253125 0.7115625 1.8253125 0.7115625 3.6875 1.4375 C6.77268791 2.59924038 9.73121198 3.48925187 13 4 C13 3.01 13 2.02 13 1 C13.66 1 14.32 1 15 1 C14.125 4.875 14.125 4.875 13 6 C10.85546875 5.984375 10.85546875 5.984375 8.1875 5.75 C7.31480469 5.68296875 6.44210937 5.6159375 5.54296875 5.546875 C2.6866255 4.93260763 1.18703669 3.8964514 -1 2 C-0.67 1.34 -0.34 0.68 0 0 Z " fill="#6788B0" transform="translate(288,324)"/>
<path d="M0 0 C4.47238653 1.41807378 8.71146306 3.11304374 13 5 C13 5.66 13 6.32 13 7 C13.99 7 14.98 7 16 7 C16 7.66 16 8.32 16 9 C10.3060269 7.69513116 5.67116665 5.55464389 1 2 C0.67 1.34 0.34 0.68 0 0 Z " fill="#6889B3" transform="translate(122,300)"/>
<path d="M0 0 C2.64 0 5.28 0 8 0 C9.28317892 3.84953676 9.06643637 6.94738135 9 11 C6 7.375 6 7.375 6 4 C5.34 4 4.68 4 4 4 C4 3.34 4 2.68 4 2 C2.68 1.34 1.36 0.68 0 0 Z " fill="#3F679E" transform="translate(367,239)"/>
<path d="M0 0 C1.0528418 0.01353516 1.0528418 0.01353516 2.12695312 0.02734375 C3.85561525 0.05086296 5.58410145 0.08673287 7.3125 0.125 C7.3125 0.455 7.3125 0.785 7.3125 1.125 C6.39726562 1.18558594 5.48203125 1.24617187 4.5390625 1.30859375 C3.35054687 1.39238281 2.16203125 1.47617188 0.9375 1.5625 C-0.24585938 1.64371094 -1.42921875 1.72492188 -2.6484375 1.80859375 C-5.60268901 1.93584936 -5.60268901 1.93584936 -7.6875 3.125 C-8.34522428 6.15434491 -8.34522428 6.15434491 -8.6875 9.125 C-9.6775 8.795 -10.6675 8.465 -11.6875 8.125 C-11.375 5.25 -11.375 5.25 -10.6875 2.125 C-7.00662647 -0.32891569 -4.24394412 -0.10302759 0 0 Z " fill="#7191B9" transform="translate(157.6875,199.875)"/>
<path d="M0 0 C0.66 0 1.32 0 2 0 C2.33 2.31 2.66 4.62 3 7 C3.66 7 4.32 7 5 7 C4.95875 7.78375 4.9175 8.5675 4.875 9.375 C4.71271266 12.16116119 4.71271266 12.16116119 7 14 C6.01 14 5.02 14 4 14 C1.15047481 11.10309553 0.57474551 8.73613173 0.3125 4.75 C0.24675781 3.85796875 0.18101563 2.9659375 0.11328125 2.046875 C0.07589844 1.37140625 0.03851563 0.6959375 0 0 Z " fill="#6485B7" transform="translate(116,285)"/>
<path d="M0 0 C0.66 0 1.32 0 2 0 C2 0.66 2 1.32 2 2 C3.05270463 3.15811388 3.05270463 3.15811388 5 4 C4.67 5.32 4.34 6.64 4 8 C4 7.01 4 6.02 4 5 C3.01 5.495 3.01 5.495 2 6 C1.34444881 8.52733235 1.34444881 8.52733235 1 11 C0.34 11 -0.32 11 -1 11 C-1 9.35 -1 7.7 -1 6 C-1.66 6 -2.32 6 -3 6 C-1.125 1.125 -1.125 1.125 0 0 Z " fill="#2A67AB" transform="translate(371,270)"/>
<path d="M0 0 C1.9375 0.625 1.9375 0.625 4 2 C4.75 5.125 4.75 5.125 5 8 C4.01 8.33 3.02 8.66 2 9 C2 11.31 2 13.62 2 16 C1.67 16 1.34 16 1 16 C0.86722656 15.38511719 0.73445312 14.77023437 0.59765625 14.13671875 C0.42105469 13.32847656 0.24445313 12.52023437 0.0625 11.6875 C-0.11152344 10.88699219 -0.28554687 10.08648437 -0.46484375 9.26171875 C-0.99886159 6.854599 -0.99886159 6.854599 -2 4 C-1.34 4 -0.68 4 0 4 C0 4.66 0 5.32 0 6 C0.66 6 1.32 6 2 6 C1.34 4.02 0.68 2.04 0 0 Z " fill="#4A7BB5" transform="translate(250,251)"/>
<path d="M0 0 C-0.33 0.99 -0.66 1.98 -1 3 C-4.3 3 -7.6 3 -11 3 C-11.33 3.66 -11.66 4.32 -12 5 C-13.98 5 -15.96 5 -18 5 C-16.68724357 2.37448713 -15.6756418 2.30493495 -12.9375 1.375 C-8.44936494 -0.0563123 -4.68447333 -0.25551673 0 0 Z " fill="#779AC1" transform="translate(221,170)"/>
<path d="M0 0 C0 0.99 0 1.98 0 3 C-5.2734375 6.22265625 -5.2734375 6.22265625 -7 7 C-7.66 6.67 -8.32 6.34 -9 6 C-9 5.01 -9 4.02 -9 3 C-8.34 3 -7.68 3 -7 3 C-7 2.34 -7 1.68 -7 1 C-4.53721199 -0.231394 -2.7204945 -0.07159196 0 0 Z " fill="#4976AC" transform="translate(227,298)"/>
<path d="M0 0 C0.99 0.495 0.99 0.495 2 1 C2 1.66 2 2.32 2 3 C2.66 3 3.32 3 4 3 C9 8.47619048 9 8.47619048 9 11 C9.66 11 10.32 11 11 11 C11 11.66 11 12.32 11 13 C8 13 8 13 6.4375 11.625 C5.7259375 10.820625 5.7259375 10.820625 5 10 C4.34 9.34 3.68 8.68 3 8 C3 6.68 3 5.36 3 4 C2.01 4 1.02 4 0 4 C0 2.68 0 1.36 0 0 Z " fill="#6C8BB2" transform="translate(340,278)"/>
<path d="M0 0 C1.5625 1.1875 1.5625 1.1875 3 3 C2.6875 5.6875 2.6875 5.6875 2 8 C0.68 8.33 -0.64 8.66 -2 9 C-2.66 7.68 -3.32 6.36 -4 5 C-3.34 4.01 -2.68 3.02 -2 2 C-1.34 2 -0.68 2 0 2 C0 1.34 0 0.68 0 0 Z " fill="#376FB0" transform="translate(318,255)"/>
<path d="M0 0 C2.31 0 4.62 0 7 0 C6.34 0.66 5.68 1.32 5 2 C5.99 2.66 6.98 3.32 8 4 C8 4.66 8 5.32 8 6 C5.03 5.67 2.06 5.34 -1 5 C-0.67 3.35 -0.34 1.7 0 0 Z " fill="#3D76BD" transform="translate(306,170)"/>
<path d="M0 0 C2.97397616 0.27036147 3.85446026 0.85446026 6 3 C5.07767578 3.27263672 5.07767578 3.27263672 4.13671875 3.55078125 C3.32847656 3.80214844 2.52023437 4.05351562 1.6875 4.3125 C0.48673828 4.67794922 0.48673828 4.67794922 -0.73828125 5.05078125 C-3.09964573 6.04182023 -4.33879993 7.08074943 -6 9 C-6.66 7.02 -7.32 5.04 -8 3 C-6.8553125 3.0928125 -6.8553125 3.0928125 -5.6875 3.1875 C-2.95010308 3.29186282 -2.95010308 3.29186282 -1.4375 1.4375 C-0.963125 0.963125 -0.48875 0.48875 0 0 Z " fill="#5881B1" transform="translate(368,285)"/>
<path d="M0 0 C3.43595166 1.52708963 6.11912454 3.59927045 9 6 C8.67 6.33 8.34 6.66 8 7 C8.66 7.33 9.32 7.66 10 8 C9.67 9.32 9.34 10.64 9 12 C7.68181446 10.56771184 6.37063296 9.12897516 5.0625 7.6875 C4.33160156 6.88699219 3.60070312 6.08648437 2.84765625 5.26171875 C1 3 1 3 0 0 Z " fill="#567FAD" transform="translate(318,279)"/>
<path d="M0 0 C0.33 1.32 0.66 2.64 1 4 C-1.63904371 5.41377341 -4.07120629 6.37240135 -7 7 C-7 5.68 -7 4.36 -7 3 C-4.49515403 0.58152803 -3.53986194 0 0 0 Z " fill="#4A7AB1" transform="translate(166,224)"/>
<path d="M0 0 C0.33 0 0.66 0 1 0 C1 4.29 1 8.58 1 13 C1.66 13.33 2.32 13.66 3 14 C3 14.99 3 15.98 3 17 C0.69 16.34 -1.62 15.68 -4 15 C-3.27876953 14.18789062 -3.27876953 14.18789062 -2.54296875 13.359375 C-0.68676442 10.52102712 -0.51262344 8.61207374 -0.3125 5.25 C-0.21388672 3.77273437 -0.21388672 3.77273437 -0.11328125 2.265625 C-0.07589844 1.51796875 -0.03851563 0.7703125 0 0 Z " fill="#5986B8" transform="translate(314,237)"/>
<path d="M0 0 C1.32 0.33 2.64 0.66 4 1 C4 1.66 4 2.32 4 3 C5.65 3.33 7.3 3.66 9 4 C9 4.33 9 4.66 9 5 C4.71 5 0.42 5 -4 5 C-4.33 4.34 -4.66 3.68 -5 3 C-3.35 2.67 -1.7 2.34 0 2 C0 1.34 0 0.68 0 0 Z " fill="#2E619E" transform="translate(311,208)"/>
<path d="M0 0 C3.3 0 6.6 0 10 0 C10.33 0.99 10.66 1.98 11 3 C11.66 3.33 12.32 3.66 13 4 C12.01 4.495 12.01 4.495 11 5 C10.01 4.34 9.02 3.68 8 3 C5.71351152 2.75892674 5.71351152 2.75892674 3.3125 2.875 C2.50425781 2.89304687 1.69601562 2.91109375 0.86328125 2.9296875 C0.24839844 2.95289063 -0.36648438 2.97609375 -1 3 C-0.67 2.01 -0.34 1.02 0 0 Z " fill="#4C78AA" transform="translate(307,321)"/>
<path d="M0 0 C0.33 0 0.66 0 1 0 C1.05447047 1.41623216 1.09300508 2.83308191 1.125 4.25 C1.14820313 5.03890625 1.17140625 5.8278125 1.1953125 6.640625 C0.97954438 9.24710389 0.40935125 10.80767583 -1 13 C-3.125 13.75 -3.125 13.75 -5 14 C-5.33 12.68 -5.66 11.36 -6 10 C-4.35 9.67 -2.7 9.34 -1 9 C-0.67 6.03 -0.34 3.06 0 0 Z " fill="#648CB6" transform="translate(206,306)"/>
<path d="M0 0 C-3.30371117 2.20247411 -4.2150317 2.09462421 -8 2 C-8.99 2.33 -9.98 2.66 -11 3 C-11.33 3.99 -11.66 4.98 -12 6 C-14 3 -14 3 -14 1 C-12.04310963 0.63794536 -10.08442332 0.28558579 -8.125 -0.0625 C-7.03445313 -0.25972656 -5.94390625 -0.45695313 -4.8203125 -0.66015625 C-2 -1 -2 -1 0 0 Z " fill="#5A80A9" transform="translate(334,255)"/>
<path d="M0 0 C0.66 0.33 1.32 0.66 2 1 C1.505 1.53625 1.01 2.0725 0.5 2.625 C-1.37489544 5.59358445 -1.23501425 7.55312427 -1 11 C-1.99 11.33 -2.98 11.66 -4 12 C-4 10.68 -4 9.36 -4 8 C-4.66 8 -5.32 8 -6 8 C-4.55746343 4.63408134 -2.66735273 2.48952921 0 0 Z " fill="#4D7AB7" transform="translate(198,177)"/>
<path d="M0 0 C3.3 0.33 6.6 0.66 10 1 C10 1.33 10 1.66 10 2 C8.453125 2.0928125 8.453125 2.0928125 6.875 2.1875 C2.11537173 3.18548657 0.46407037 4.70490867 -3 8 C-2.45276317 4.62537285 -1.9451 2.91765 0 0 Z " fill="#6A8FBB" transform="translate(339,312)"/>
<path d="M0 0 C-1 3 -1 3 -3.1875 4.1875 C-6.25390311 5.07334979 -8.82438155 5.14770318 -12 5 C-9.11083069 1.26107501 -4.63135569 0 0 0 Z " fill="#7B8B9F" transform="translate(148,263)"/>
<path d="M0 0 C0.804375 0.804375 1.60875 1.60875 2.4375 2.4375 C6.26663263 5.68813058 10.1211256 5.88073863 15 6 C15 6.33 15 6.66 15 7 C11.37 7.33 7.74 7.66 4 8 C3.67 7.34 3.34 6.68 3 6 C2.01 5.67 1.02 5.34 0 5 C0 3.35 0 1.7 0 0 Z " fill="#5E84AF" transform="translate(172,257)"/>
<path d="M0 0 C0.66 0.33 1.32 0.66 2 1 C0.24476928 4.94926912 -1.08824458 7.92187993 -5 10 C-5.99 9.67 -6.98 9.34 -8 9 C-7.04882866 7.8274869 -6.08882991 6.66212985 -5.125 5.5 C-4.32449219 4.52546875 -4.32449219 4.52546875 -3.5078125 3.53125 C-2.76144531 2.77328125 -2.76144531 2.77328125 -2 2 C-1.34 2 -0.68 2 0 2 C0 1.34 0 0.68 0 0 Z " fill="#6184B1" transform="translate(289,274)"/>
<path d="M0 0 C0.33 0.99 0.66 1.98 1 3 C-1.94553377 8.66448802 -1.94553377 8.66448802 -5.75 9.875 C-6.4925 9.91625 -7.235 9.9575 -8 10 C-7.21654285 8.82780457 -6.42297164 7.66236332 -5.625 6.5 C-5.18414062 5.8503125 -4.74328125 5.200625 -4.2890625 4.53125 C-3.86367188 4.0259375 -3.43828125 3.520625 -3 3 C-2.34 3 -1.68 3 -1 3 C-0.67 2.01 -0.34 1.02 0 0 Z " fill="#5482AD" transform="translate(299,263)"/>
<path d="M0 0 C0.928125 0.2784375 0.928125 0.2784375 1.875 0.5625 C4.04160178 1.23686176 4.04160178 1.23686176 6 0 C6.33 1.65 6.66 3.3 7 5 C4 6 4 6 1.8125 5.0625 C1.214375 4.711875 0.61625 4.36125 0 4 C0 2.68 0 1.36 0 0 Z " fill="#2F61A7" transform="translate(312,262)"/>
<path d="M0 0 C3.93846154 3.32307692 3.93846154 3.32307692 4.25 6.75 C4.1675 7.4925 4.085 8.235 4 9 C2.68 8.67 1.36 8.34 0 8 C0 7.34 0 6.68 0 6 C-0.99 6 -1.98 6 -3 6 C-3 4.68 -3 3.36 -3 2 C-2.01 2.495 -2.01 2.495 -1 3 C-0.67 2.01 -0.34 1.02 0 0 Z " fill="#2964AD" transform="translate(339,194)"/>
<path d="M0 0 C1.32 0.33 2.64 0.66 4 1 C4.0825 1.61875 4.165 2.2375 4.25 2.875 C4.81258459 5.18437567 4.81258459 5.18437567 7.0625 6.25 C7.701875 6.4975 8.34125 6.745 9 7 C7.02 7.99 7.02 7.99 5 9 C3.5 7.75 3.5 7.75 2 6 C2 4.68 2 3.36 2 2 C1.34 2 0.68 2 0 2 C0 1.34 0 0.68 0 0 Z " fill="#5E85B3" transform="translate(149,311)"/>
<path d="M0 0 C2.64 0 5.28 0 8 0 C7.67 0.66 7.34 1.32 7 2 C4.9375 2.625 4.9375 2.625 3 3 C2.34 5.31 1.68 7.62 1 10 C0.34 9.67 -0.32 9.34 -1 9 C-0.67 6.03 -0.34 3.06 0 0 Z " fill="#2E609C" transform="translate(320,270)"/>
<path d="M0 0 C0.33 0.66 0.66 1.32 1 2 C1.66 2 2.32 2 3 2 C2.34 5.63 1.68 9.26 1 13 C-0.98983228 9.02033543 -1.22400716 8.32324868 -0.625 4.25 C-0.51414063 3.45078125 -0.40328125 2.6515625 -0.2890625 1.828125 C-0.19367188 1.22484375 -0.09828125 0.6215625 0 0 Z " fill="#4470AB" transform="translate(153,239)"/>
<path d="M0 0 C2.88575819 0.39803561 3.82189513 0.79009069 5.75 3.0625 C6.36875 4.0215625 6.36875 4.0215625 7 5 C0.375 5.25 0.375 5.25 -3 3 C-2.01 2.67 -1.02 2.34 0 2 C0 1.34 0 0.68 0 0 Z " fill="#6887B5" transform="translate(291,233)"/>
<path d="M0 0 C2.475 0.495 2.475 0.495 5 1 C5.33 2.32 5.66 3.64 6 5 C4.68 5 3.36 5 2 5 C1.67 5.99 1.34 6.98 1 8 C0.67 5.36 0.34 2.72 0 0 Z " fill="#4072B1" transform="translate(338,202)"/>
<path d="M0 0 C4.875 0.875 4.875 0.875 6 2 C6.04080783 3.99958364 6.04254356 6.00045254 6 8 C5.01 8 4.02 8 3 8 C3 6.35 3 4.7 3 3 C2.01 2.67 1.02 2.34 0 2 C0 1.34 0 0.68 0 0 Z " fill="#436FA3" transform="translate(329,198)"/>
<path d="M0 0 C0.66 0 1.32 0 2 0 C2.33 0.99 2.66 1.98 3 3 C-0.74525799 6.74525799 -4.98270909 6.68909949 -10 7 C-6.74147635 4.8276509 -3.40755272 2.92880342 0 1 C0 0.67 0 0.34 0 0 Z " fill="#6A90B9" transform="translate(338,303)"/>
<path d="M0 0 C1.58294782 -0.05437607 3.16644256 -0.09296271 4.75 -0.125 C5.63171875 -0.14820313 6.5134375 -0.17140625 7.421875 -0.1953125 C10.1135858 0.00860498 11.69904974 0.63448279 14 2 C13.67 2.66 13.34 3.32 13 4 C12.34 4 11.68 4 11 4 C11 3.34 11 2.68 11 2 C8.36 2.33 5.72 2.66 3 3 C3 2.34 3 1.68 3 1 C2.01 0.67 1.02 0.34 0 0 Z " fill="#2B639C" transform="translate(166,299)"/>
<path d="M0 0 C0.33 0.66 0.66 1.32 1 2 C1.66 2 2.32 2 3 2 C4.38938077 3.96147874 5.7260411 5.96166576 7 8 C5.02 8 3.04 8 1 8 C1 7.01 1 6.02 1 5 C0.01 4.34 -0.98 3.68 -2 3 C-1 1 -1 1 0 0 Z " fill="#6087BA" transform="translate(333,270)"/>
<path d="M0 0 C2.2109885 0.42793326 3.98119242 0.99059621 6 2 C6 2.66 6 3.32 6 4 C4.02 4.66 2.04 5.32 0 6 C-0.38218767 4.34385343 -0.71395102 2.67542976 -1 1 C-0.67 0.67 -0.34 0.34 0 0 Z " fill="#4C75AA" transform="translate(304,250)"/>
<path d="M0 0 C1.093125 0.226875 2.18625 0.45375 3.3125 0.6875 C0.84971199 3.15028801 -1.39426982 3.68521255 -4.6875 4.6875 C-5.3475 4.0275 -6.0075 3.3675 -6.6875 2.6875 C-4.58035839 -0.41123767 -3.86755884 -0.32775922 0 0 Z " fill="#6185B1" transform="translate(269.6875,211.3125)"/>
<path d="M0 0 C4.26086957 6.39130435 4.26086957 6.39130435 3.625 10.3125 C3.41875 10.869375 3.2125 11.42625 3 12 C0.79107828 8.68661742 -0.08787021 5.85901066 -1 2 C-0.67 1.34 -0.34 0.68 0 0 Z " fill="#5A81AF" transform="translate(343,198)"/>
<path d="M0 0 C2.33294775 -0.04241723 4.66702567 -0.04092937 7 0 C8 1 8 1 8.0625 3.5625 C8.041875 4.366875 8.02125 5.17125 8 6 C7.01 6.33 6.02 6.66 5 7 C5 5.02 5 3.04 5 1 C3.35 1 1.7 1 0 1 C0 0.67 0 0.34 0 0 Z " fill="#2F64A5" transform="translate(256,296)"/>
<path d="M0 0 C2.31 0.33 4.62 0.66 7 1 C7 1.66 7 2.32 7 3 C8.65 3 10.3 3 12 3 C12 3.66 12 4.32 12 5 C10.55989519 4.74337755 9.1229313 4.46909179 7.6875 4.1875 C6.88699219 4.03667969 6.08648437 3.88585937 5.26171875 3.73046875 C2.76554413 2.92427764 1.67577894 1.97947998 0 0 Z " fill="#5B7EAD" transform="translate(179,239)"/>
<path d="M0 0 C1.98 0 3.96 0 6 0 C6.66 1.32 7.32 2.64 8 4 C7.01 4.495 7.01 4.495 6 5 C3.96855359 4.06553465 1.96466413 3.06775224 0 2 C0 1.34 0 0.68 0 0 Z " fill="#678AB6" transform="translate(160,213)"/>
<path d="M0 0 C0.33 0 0.66 0 1 0 C1.36923077 6.52307692 1.36923077 6.52307692 -0.5 8.9375 C-0.995 9.288125 -1.49 9.63875 -2 10 C-2.33 7.69 -2.66 5.38 -3 3 C-2.01 2.67 -1.02 2.34 0 2 C0 1.34 0 0.68 0 0 Z " fill="#2F64AB" transform="translate(120,280)"/>
<path d="M0 0 C2.23551759 3.35327639 2.17283528 3.90743657 1.625 7.6875 C1.51414062 8.49574219 1.40328125 9.30398438 1.2890625 10.13671875 C1.19367188 10.75160156 1.09828125 11.36648438 1 12 C0.34 12 -0.32 12 -1 12 C-1.02712066 10.56260487 -1.04645067 9.12506137 -1.0625 7.6875 C-1.07410156 6.88699219 -1.08570313 6.08648437 -1.09765625 5.26171875 C-1 3 -1 3 0 0 Z " fill="#2D61A0" transform="translate(369,255)"/>
<path d="M0 0 C2 2 2 2 2.0625 4.4375 C2.041875 5.283125 2.02125 6.12875 2 7 C2.33 7.99 2.66 8.98 3 10 C1.68 9.67 0.36 9.34 -1 9 C-0.67 6.03 -0.34 3.06 0 0 Z " fill="#6582B2" transform="translate(245,245)"/>
<path d="M0 0 C1.32 0.66 2.64 1.32 4 2 C2.68 3.65 1.36 5.3 0 7 C0 6.34 0 5.68 0 5 C-0.66 5 -1.32 5 -2 5 C-2 4.34 -2 3.68 -2 3 C-2.66 2.67 -3.32 2.34 -4 2 C-2.68 2 -1.36 2 0 2 C0 1.34 0 0.68 0 0 Z " fill="#628AB6" transform="translate(302,247)"/>
<path d="M0 0 C1.32 0.33 2.64 0.66 4 1 C4 1.66 4 2.32 4 3 C3.01 3 2.02 3 1 3 C1.33 4.32 1.66 5.64 2 7 C1.01 7 0.02 7 -1 7 C-2 4 -2 4 -1.0625 1.8125 C-0.5365625 0.9153125 -0.5365625 0.9153125 0 0 Z " fill="#6085B1" transform="translate(338,234)"/>
<path d="M0 0 C0.99 0 1.98 0 3 0 C3 1.32 3 2.64 3 4 C2.34 4 1.68 4 1 4 C1 7.3 1 10.6 1 14 C0.67 14 0.34 14 0 14 C0 9.38 0 4.76 0 0 Z " fill="#356397" transform="translate(315,235)"/>
<path d="M0 0 C0.928125 0.0825 1.85625 0.165 2.8125 0.25 C2.8125 0.91 2.8125 1.57 2.8125 2.25 C-0.32248292 4.10776765 -2.56221432 4.45140476 -6.1875 4.25 C-4.36434338 1.00883268 -3.82500054 0.30000004 0 0 Z " fill="#547BA8" transform="translate(376.1875,208.75)"/>
<path d="M0 0 C1.65 0 3.3 0 5 0 C5 0.66 5 1.32 5 2 C1.17010894 3.80230168 -1.78121808 4.19622241 -6 4 C-6 3.67 -6 3.34 -6 3 C-4.35 3 -2.7 3 -1 3 C-0.67 2.01 -0.34 1.02 0 0 Z " fill="#3A6AA0" transform="translate(326,310)"/>
<path d="M0 0 C2.5654594 2.5654594 2.54046087 4.47686668 3 8 C1.68 7.67 0.36 7.34 -1 7 C-0.67 4.69 -0.34 2.38 0 0 Z " fill="#5480AE" transform="translate(260,301)"/>
<path d="M0 0 C0.763125 0.61875 1.52625 1.2375 2.3125 1.875 C4.99625809 4.05597052 4.99625809 4.05597052 8 6 C6.35 6.33 4.7 6.66 3 7 C2.34 5.68 1.68 4.36 1 3 C0.34 3 -0.32 3 -1 3 C-0.67 2.01 -0.34 1.02 0 0 Z " fill="#6A91BC" transform="translate(362,233)"/>
<path d="M0 0 C0.99 0 1.98 0 3 0 C2.67 2.31 2.34 4.62 2 7 C0.68 7.33 -0.64 7.66 -2 8 C-2.33 7.01 -2.66 6.02 -3 5 C-2.01 5 -1.02 5 0 5 C0 3.35 0 1.7 0 0 Z " fill="#6883B4" transform="translate(236,224)"/>
<path d="M0 0 C1.33333333 2.66666667 2.66666667 5.33333333 4 8 C2.68 8.33 1.36 8.66 0 9 C-0.66 7.02 -1.32 5.04 -2 3 C-1.34 3 -0.68 3 0 3 C0 2.01 0 1.02 0 0 Z " fill="#5480BA" transform="translate(335,203)"/>
<path d="M0 0 C6.625 -0.125 6.625 -0.125 10 1 C10.6875 3.0625 10.6875 3.0625 11 5 C10.34 5 9.68 5 9 5 C9 4.34 9 3.68 9 3 C4.545 2.01 4.545 2.01 0 1 C0 0.67 0 0.34 0 0 Z " fill="#748DB8" transform="translate(312,178)"/>
<path d="M0 0 C1.98 0.99 1.98 0.99 4 2 C3.67 3.65 3.34 5.3 3 7 C2.67 6.34 2.34 5.68 2 5 C1.34 5 0.68 5 0 5 C0 3.35 0 1.7 0 0 Z " fill="#2A65A7" transform="translate(358,289)"/>
<path d="M0 0 C0 3 0 3 -2.5 5.6875 C-3.325 6.450625 -4.15 7.21375 -5 8 C-4.75 5.125 -4.75 5.125 -4 2 C-1.9375 0.625 -1.9375 0.625 0 0 Z " fill="#2569B8" transform="translate(290,279)"/>
<path d="M0 0 C0.66 0 1.32 0 2 0 C2 1.98 2 3.96 2 6 C1.34 6 0.68 6 0 6 C0 6.66 0 7.32 0 8 C-0.99 7.67 -1.98 7.34 -3 7 C-2.01 4.69 -1.02 2.38 0 0 Z " fill="#5E80B0" transform="translate(286,203)"/>
<path d="M0 0 C1.32 0.66 2.64 1.32 4 2 C3.01 2.495 3.01 2.495 2 3 C2.33 3.66 2.66 4.32 3 5 C1.35 5 -0.3 5 -2 5 C-2 4.01 -2 3.02 -2 2 C-1.34 2 -0.68 2 0 2 C0 1.34 0 0.68 0 0 Z " fill="#457ABE" transform="translate(128,293)"/>
<path d="M0 0 C2.31 0 4.62 0 7 0 C6.67 1.32 6.34 2.64 6 4 C1.125 2.25 1.125 2.25 0 0 Z " fill="#3263A0" transform="translate(348,291)"/>
<path d="M0 0 C0.33 0 0.66 0 1 0 C1.33 2.97 1.66 5.94 2 9 C1.01 9.33 0.02 9.66 -1 10 C-1.33 10.66 -1.66 11.32 -2 12 C-1.34 8.04 -0.68 4.08 0 0 Z " fill="#6B89AF" transform="translate(376,244)"/>
<path d="M0 0 C0.66 0.33 1.32 0.66 2 1 C0.25 6.75 0.25 6.75 -2 9 C-2 6.36 -2 3.72 -2 1 C-1.34 0.67 -0.68 0.34 0 0 Z " fill="#587DB0" transform="translate(226,237)"/>
<path d="M0 0 C0.33 1.32 0.66 2.64 1 4 C-1.60582371 4.93065133 -2.64198224 5.14917407 -5.25 4.0625 C-5.8275 3.711875 -6.405 3.36125 -7 3 C-4.69 2.01 -2.38 1.02 0 0 Z " fill="#799AC4" transform="translate(258,235)"/>
<path d="M0 0 C1.4540625 0.0309375 1.4540625 0.0309375 2.9375 0.0625 C2.6075 1.0525 2.2775 2.0425 1.9375 3.0625 C0.9475 3.3925 -0.0425 3.7225 -1.0625 4.0625 C-2.0525 3.0725 -3.0425 2.0825 -4.0625 1.0625 C-3.0625 0.0625 -3.0625 0.0625 0 0 Z " fill="#2765AD" transform="translate(359.0625,236.9375)"/>
<path d="M0 0 C2 1 2 1 3 3 C0.625 4.5625 0.625 4.5625 -2 6 C-2.66 5.67 -3.32 5.34 -4 5 C-2.68 3.35 -1.36 1.7 0 0 Z " fill="#577DAB" transform="translate(320,229)"/>
<path d="M0 0 C2.375 0.25 2.375 0.25 5 1 C6.3125 3.0625 6.3125 3.0625 7 5 C6.01 5 5.02 5 4 5 C3.71125 4.360625 3.4225 3.72125 3.125 3.0625 C2.17176549 0.84793921 2.17176549 0.84793921 0 0 Z " fill="#6E92BC" transform="translate(345,227)"/>
<path d="M0 0 C2 1 2 1 2.75 2.875 C3 5 3 5 1 8 C0.26919734 6.02253397 -0.39421747 4.01927511 -1 2 C-0.67 1.34 -0.34 0.68 0 0 Z " fill="#7291B9" transform="translate(259,218)"/>
<path d="M0 0 C0.99 0.33 1.98 0.66 3 1 C2.01 1.495 2.01 1.495 1 2 C1.66 2.66 2.32 3.32 3 4 C1.35 4.66 -0.3 5.32 -2 6 C-1.125 1.125 -1.125 1.125 0 0 Z " fill="#3A75BA" transform="translate(173,217)"/>
<path d="M0 0 C1.32 0.33 2.64 0.66 4 1 C3.01 2.32 2.02 3.64 1 5 C0.01 4.67 -0.98 4.34 -2 4 C-1.34 2.68 -0.68 1.36 0 0 Z " fill="#416BA8" transform="translate(262,215)"/>
<path d="M0 0 C0 1.98 0 3.96 0 6 C-1.32 6 -2.64 6 -4 6 C-3.625 3.5625 -3.625 3.5625 -3 1 C-1 0 -1 0 0 0 Z " fill="#4E75AE" transform="translate(185,199)"/>
<path d="M0 0 C-3.4352048 2.29013653 -4.985331 2.17842973 -9 2 C-9 1.34 -9 0.68 -9 0 C-5.62182575 -0.84454356 -3.32534757 -1.10844919 0 0 Z " fill="#4472A7" transform="translate(221,177)"/>
<path d="M0 0 C4.44870215 -0.39253254 7.14243493 0.84694043 11 3 C10.34 3.66 9.68 4.32 9 5 C9 4.34 9 3.68 9 3 C7.68 3.33 6.36 3.66 5 4 C4.67 3.01 4.34 2.02 4 1 C1.98491642 0.26676204 1.98491642 0.26676204 0 0 Z " fill="#7795C1" transform="translate(313,171)"/>
<path d="M0 0 C2.64 0 5.28 0 8 0 C7.67 0.99 7.34 1.98 7 3 C4.69 2.67 2.38 2.34 0 2 C0 1.34 0 0.68 0 0 Z " fill="#5A83B4" transform="translate(213,170)"/>
<path d="M0 0 C1.32 0 2.64 0 4 0 C4.66 1.98 5.32 3.96 6 6 C5.34 6 4.68 6 4 6 C4 5.34 4 4.68 4 4 C3.34 4 2.68 4 2 4 C1.34 2.68 0.68 1.36 0 0 Z " fill="#5582AC" transform="translate(328,291)"/>
<path d="M0 0 C0.66 0.33 1.32 0.66 2 1 C2 1.66 2 2.32 2 3 C1.34 3 0.68 3 0 3 C-0.66 4.32 -1.32 5.64 -2 7 C-2.6875 5.1875 -2.6875 5.1875 -3 3 C-1.5625 1.25 -1.5625 1.25 0 0 Z " fill="#648DB4" transform="translate(295,286)"/>
<path d="M0 0 C0.99 0 1.98 0 3 0 C3 1.65 3 3.3 3 5 C0 4 0 4 -3 2 C-2.01 2 -1.02 2 0 2 C0 1.34 0 0.68 0 0 Z " fill="#2E61A9" transform="translate(371,282)"/>
<path d="M0 0 C4.875 1.75 4.875 1.75 6 4 C4.68 4.33 3.36 4.66 2 5 C2 4.34 2 3.68 2 3 C1.34 3 0.68 3 0 3 C0 2.01 0 1.02 0 0 Z " fill="#2369B3" transform="translate(292,239)"/>
<path d="M0 0 C-1.0625 1.5625 -1.0625 1.5625 -3 3 C-6.6875 2.6875 -6.6875 2.6875 -10 2 C-10 1.67 -10 1.34 -10 1 C-8.71073008 0.63720544 -7.41846728 0.28503302 -6.125 -0.0625 C-5.40570313 -0.25972656 -4.68640625 -0.45695313 -3.9453125 -0.66015625 C-2 -1 -2 -1 0 0 Z " fill="#7191B7" transform="translate(283,212)"/>
<path d="M0 0 C2.64 0.33 5.28 0.66 8 1 C5.38058783 2.74627478 3.96175123 3.38722388 1 4 C0.67 2.68 0.34 1.36 0 0 Z " fill="#708DB9" transform="translate(321,196)"/>
<path d="M0 0 C0.33 1.32 0.66 2.64 1 4 C0.34 4 -0.32 4 -1 4 C-1.33 5.65 -1.66 7.3 -2 9 C-2.66 9 -3.32 9 -4 9 C-2.94124926 5.59687262 -1.99097846 2.98646769 0 0 Z " fill="#6A88B9" transform="translate(189,187)"/>
<path d="" fill="#FFFFFF" transform="translate(0,0)"/>
<path d="" fill="#FFFFFF" transform="translate(0,0)"/>
<path d="" fill="#FFFFFF" transform="translate(0,0)"/>
<path d="" fill="#FFFFFF" transform="translate(0,0)"/>
<path d="" fill="#FFFFFF" transform="translate(0,0)"/>
<path d="" fill="#FFFFFF" transform="translate(0,0)"/>
<path d="" fill="#FFFFFF" transform="translate(0,0)"/>
<path d="" fill="#FFFFFF" transform="translate(0,0)"/>
<path d="" fill="#FFFFFF" transform="translate(0,0)"/>
<path d="" fill="#FFFFFF" transform="translate(0,0)"/>
<path d="" fill="#FFFFFF" transform="translate(0,0)"/>
<path d="" fill="#FFFFFF" transform="translate(0,0)"/>
<path d="" fill="#FFFFFF" transform="translate(0,0)"/>
<path d="" fill="#FFFFFF" transform="translate(0,0)"/>
<path d="" fill="#FFFFFF" transform="translate(0,0)"/>
<path d="" fill="#FFFFFF" transform="translate(0,0)"/>
<path d="" fill="#FFFFFF" transform="translate(0,0)"/>
<path d="" fill="#FFFFFF" transform="translate(0,0)"/>
<path d="" fill="#FFFFFF" transform="translate(0,0)"/>
<path d="" fill="#FFFFFF" transform="translate(0,0)"/>
<path d="" fill="#FFFFFF" transform="translate(0,0)"/>
<path d="" fill="#FFFFFF" transform="translate(0,0)"/>
<path d="" fill="#FFFFFF" transform="translate(0,0)"/>
<path d="" fill="#FFFFFF" transform="translate(0,0)"/>
<path d="" fill="#FFFFFF" transform="translate(0,0)"/>
<path d="" fill="#FFFFFF" transform="translate(0,0)"/>
<path d="" fill="#FFFFFF" transform="translate(0,0)"/>
<path d="" fill="#FFFFFF" transform="translate(0,0)"/>
<path d="" fill="#FFFFFF" transform="translate(0,0)"/>
<path d="" fill="#FFFFFF" transform="translate(0,0)"/>
<path d="" fill="#FFFFFF" transform="translate(0,0)"/>
<path d="" fill="#FFFFFF" transform="translate(0,0)"/>
<path d="" fill="#FFFFFF" transform="translate(0,0)"/>
<path d="" fill="#FFFFFF" transform="translate(0,0)"/>
<path d="" fill="#FFFFFF" transform="translate(0,0)"/>
<path d="" fill="#FFFFFF" transform="translate(0,0)"/>
<path d="" fill="#FFFFFF" transform="translate(0,0)"/>
<path d="" fill="#FFFFFF" transform="translate(0,0)"/>
<path d="" fill="#FFFFFF" transform="translate(0,0)"/>
<path d="" fill="#FFFFFF" transform="translate(0,0)"/>
<path d="" fill="#FFFFFF" transform="translate(0,0)"/>
<path d="" fill="#FFFFFF" transform="translate(0,0)"/>
<path d="" fill="#FFFFFF" transform="translate(0,0)"/>
<path d="" fill="#FFFFFF" transform="translate(0,0)"/>
<path d="" fill="#FFFFFF" transform="translate(0,0)"/>
<path d="" fill="#FFFFFF" transform="translate(0,0)"/>
<path d="" fill="#FFFFFF" transform="translate(0,0)"/>
<path d="" fill="#FFFFFF" transform="translate(0,0)"/>
<path d="" fill="#FFFFFF" transform="translate(0,0)"/>
<path d="" fill="#FFFFFF" transform="translate(0,0)"/>
<path d="" fill="#FFFFFF" transform="translate(0,0)"/>
<path d="" fill="#FFFFFF" transform="translate(0,0)"/>
<path d="" fill="#FFFFFF" transform="translate(0,0)"/>
<path d="" fill="#FFFFFF" transform="translate(0,0)"/>
<path d="" fill="#FFFFFF" transform="translate(0,0)"/>
<path d="" fill="#FFFFFF" transform="translate(0,0)"/>
<path d="" fill="#FFFFFF" transform="translate(0,0)"/>
<path d="" fill="#FFFFFF" transform="translate(0,0)"/>
<path d="" fill="#FFFFFF" transform="translate(0,0)"/>
<path d="" fill="#FFFFFF" transform="translate(0,0)"/>
<path d="" fill="#FFFFFF" transform="translate(0,0)"/>
<path d="" fill="#FFFFFF" transform="translate(0,0)"/>
<path d="" fill="#FFFFFF" transform="translate(0,0)"/>
<path d="" fill="#FFFFFF" transform="translate(0,0)"/>
<path d="" fill="#FFFFFF" transform="translate(0,0)"/>
<path d="" fill="#FFFFFF" transform="translate(0,0)"/>
<path d="" fill="#FFFFFF" transform="translate(0,0)"/>
<path d="" fill="#FFFFFF" transform="translate(0,0)"/>
<path d="" fill="#FFFFFF" transform="translate(0,0)"/>
<path d="" fill="#FFFFFF" transform="translate(0,0)"/>
<path d="" fill="#FFFFFF" transform="translate(0,0)"/>
<path d="" fill="#FFFFFF" transform="translate(0,0)"/>
<path d="" fill="#FFFFFF" transform="translate(0,0)"/>
<path d="" fill="#FFFFFF" transform="translate(0,0)"/>
<path d="" fill="#FFFFFF" transform="translate(0,0)"/>
<path d="" fill="#FFFFFF" transform="translate(0,0)"/>
<path d="" fill="#FFFFFF" transform="translate(0,0)"/>
<path d="" fill="#FFFFFF" transform="translate(0,0)"/>
<path d="" fill="#FFFFFF" transform="translate(0,0)"/>
<path d="" fill="#FFFFFF" transform="translate(0,0)"/>
<path d="" fill="#FFFFFF" transform="translate(0,0)"/>
<path d="" fill="#FFFFFF" transform="translate(0,0)"/>
<path d="" fill="#FFFFFF" transform="translate(0,0)"/>
<path d="" fill="#FFFFFF" transform="translate(0,0)"/>
<path d="" fill="#FFFFFF" transform="translate(0,0)"/>
<path d="" fill="#FFFFFF" transform="translate(0,0)"/>
<path d="" fill="#FFFFFF" transform="translate(0,0)"/>
<path d="" fill="#FFFFFF" transform="translate(0,0)"/>
<path d="" fill="#FFFFFF" transform="translate(0,0)"/>
<path d="" fill="#FFFFFF" transform="translate(0,0)"/>
<path d="" fill="#FFFFFF" transform="translate(0,0)"/>
<path d="" fill="#FFFFFF" transform="translate(0,0)"/>
<path d="" fill="#FFFFFF" transform="translate(0,0)"/>
<path d="" fill="#FFFFFF" transform="translate(0,0)"/>
<path d="" fill="#FFFFFF" transform="translate(0,0)"/>
</svg>
